<?xml version="1.0" standalone="no"?>
<!DOCTYPE svg PUBLIC "-//W3C//DTD SVG 20010904//EN"
 "http://www.w3.org/TR/2001/REC-SVG-20010904/DTD/svg10.dtd">
<svg version="1.0" xmlns="http://www.w3.org/2000/svg"
 width="500.000000pt" height="500.000000pt" viewBox="0 0 500.000000 500.000000"
 preserveAspectRatio="xMidYMid meet">

<g transform="translate(0.000000,500.000000) scale(0.100000,-0.100000)"
fill="#000000" stroke="none">
<path d="M2325 4220 c-556 -37 -1071 -342 -1383 -818 -33 -51 -63 -101 -67
-111 -5 -16 -21 -19 -133 -25 -149 -8 -379 -39 -466 -62 -94 -25 -221 -89
-246 -124 -84 -118 23 -252 319 -400 135 -68 180 -80 199 -57 7 8 10 21 7 28
-3 8 -68 44 -143 80 -206 100 -312 188 -312 260 0 100 204 169 584 199 71 5
131 8 134 6 2 -3 -9 -38 -26 -78 -215 -522 -174 -1116 111 -1601 185 -313 492
-587 816 -727 497 -216 1036 -207 1517 25 554 267 936 810 1003 1427 13 113
13 263 2 363 -5 39 -7 71 -6 73 2 2 68 -22 146 -53 336 -133 519 -259 519
-358 0 -41 -67 -92 -157 -120 -102 -32 -173 -47 -302 -61 -111 -12 -139 -27
-112 -60 17 -20 64 -20 200 -1 281 41 444 116 466 215 29 133 -213 312 -630
466 -71 26 -133 50 -137 53 -4 4 -19 51 -32 104 -102 403 -337 755 -666 1001
-220 165 -456 270 -726 325 -88 18 -136 23 -319 35 -27 1 -100 0 -160 -4z
m115 -40 c0 -18 -7 -20 -57 -20 -32 0 -96 -3 -143 -6 -79 -6 -84 -5 -69 10 15
16 113 32 222 35 41 1 47 -2 47 -19z m181 9 c94 -9 129 -20 129 -38 0 -4 -30
-4 -67 0 -38 5 -103 8 -145 8 -71 1 -78 3 -78 21 0 24 13 25 161 9z m-480 -33
c-7 -8 -44 -20 -84 -26 -66 -11 -118 -22 -172 -37 -15 -4 -17 -2 -9 6 11 12
223 70 258 71 15 0 16 -3 7 -14z m789 -23 c52 -14 100 -30 105 -36 7 -6 5 -8
-5 -4 -8 3 -70 15 -137 28 -80 15 -124 28 -128 37 -7 18 29 12 165 -25z m-490
-28 l0 -45 -170 0 c-93 0 -170 3 -170 8 0 4 10 20 23 35 22 27 25 28 167 36
80 4 146 9 148 10 1 0 2 -19 2 -44z m302 26 c20 -1 32 -9 43 -31 8 -16 15 -31
15 -35 0 -3 -76 -5 -170 -5 l-170 0 0 43 0 42 127 -7 c71 -3 140 -6 155 -7z
m-647 -41 c-15 -29 -18 -30 -84 -30 -37 0 -96 -3 -131 -7 -87 -9 -71 9 27 31
147 32 158 34 181 35 22 1 22 0 7 -29z m850 5 l120 -24 51 -54 c27 -29 60 -71
73 -92 l22 -38 -28 6 c-133 30 -272 57 -291 57 -23 0 -23 2 -17 55 l7 55 -29
0 c-22 0 -33 7 -41 25 -20 43 -27 43 133 10z m279 -81 c120 -48 187 -93 247
-168 27 -33 49 -63 49 -67 0 -3 -48 14 -107 37 -60 24 -123 47 -141 50 -26 5
-41 19 -76 73 -23 36 -50 72 -59 80 -17 13 -23 31 -11 31 4 0 48 -16 98 -36z
m-244 -94 c36 -6 105 -21 154 -32 87 -21 89 -23 107 -62 10 -23 19 -46 19 -52
0 -7 -32 -3 -94 11 -51 13 -133 30 -181 38 -48 8 -90 19 -95 23 -4 5 -11 28
-15 52 -7 41 -6 43 17 38 12 -3 52 -10 88 -16z m-114 -78 c-3 -2 -16 -2 -30 2
l-25 6 22 37 21 37 8 -39 c5 -21 6 -40 4 -43z m-1479 -30 c-37 -52 -109 -104
-190 -140 -4 -2 21 23 55 56 59 55 165 142 174 142 2 0 -15 -26 -39 -58z
m2277 -94 l61 -58 -83 48 c-60 35 -94 63 -123 100 -21 29 -39 55 -39 58 0 9
123 -89 184 -148z m-177 52 c54 -25 65 -34 88 -80 17 -33 22 -51 13 -48 -7 3
-58 24 -113 46 -55 22 -120 45 -143 52 -38 10 -46 17 -63 56 -10 25 -19 50
-19 55 0 10 145 -40 237 -81z m-613 52 c3 -5 8 -39 12 -77 l7 -68 -64 6 c-35
4 -133 10 -217 14 -132 5 -152 8 -150 22 3 13 22 17 103 21 86 5 107 9 153 34
29 16 57 35 63 43 12 14 85 18 93 5z m226 -38 c188 -39 172 -30 193 -113 10
-40 17 -75 15 -77 -3 -2 -20 1 -39 6 -46 14 -253 56 -310 64 -51 8 -47 -1 -64
114 l-7 44 48 -7 c27 -4 101 -18 164 -31z m-1100 -77 l0 -33 -122 -23 c-68
-12 -136 -25 -153 -28 -28 -5 -27 -2 19 31 58 42 115 65 187 76 30 4 57 8 62
9 4 0 7 -14 7 -32z m440 15 c0 -17 -14 -20 -157 -26 -87 -4 -184 -11 -215 -15
-51 -6 -58 -5 -58 10 0 49 -1 49 221 49 196 0 209 -1 209 -18z m946 -16 c60
-20 213 -83 222 -91 6 -5 52 -148 49 -151 -2 -2 -44 14 -93 35 -50 22 -123 49
-162 61 -62 19 -73 26 -78 48 -3 15 -12 48 -19 75 -15 56 -15 56 81 23z
m-2086 -40 c-16 -35 -31 -51 -63 -67 -23 -12 -68 -39 -101 -61 -32 -21 -60
-37 -62 -35 -9 9 69 106 109 135 53 38 130 82 134 78 2 -2 -6 -24 -17 -50z
m2361 11 c37 -23 78 -51 91 -62 24 -20 83 -104 76 -110 -2 -2 -45 23 -96 55
-51 32 -96 60 -101 62 -11 4 -52 98 -43 97 4 0 37 -19 73 -42z m-1221 -166 l0
-178 -157 -6 c-87 -4 -189 -10 -226 -13 l-69 -7 6 134 c4 74 9 153 12 175 l5
42 67 7 c37 4 128 11 202 15 74 4 141 8 148 8 9 2 12 -40 12 -177z m330 158
c69 -6 126 -12 127 -13 2 -2 6 -81 10 -176 l6 -173 -64 7 c-35 3 -137 9 -226
13 l-163 6 0 177 0 177 93 -4 c50 -2 148 -8 217 -14z m-784 -111 c-3 -50 -6
-128 -6 -174 l0 -82 -52 -7 c-29 -4 -95 -16 -147 -26 -118 -24 -209 -25 -218
-3 -12 31 16 172 46 231 44 88 59 97 201 126 69 14 138 26 154 26 l29 1 -7
-92z m1103 67 c69 -14 149 -32 177 -40 l51 -15 12 -88 c12 -100 15 -262 4
-262 -5 0 -39 9 -78 19 -38 10 -126 29 -195 41 -69 13 -128 26 -132 29 -3 3
-8 81 -10 174 l-4 167 24 0 c14 0 81 -11 151 -25z m-1843 -103 c-23 -73 -23
-73 -92 -113 -37 -22 -90 -56 -117 -75 -27 -20 -50 -34 -52 -32 -2 2 10 36 27
75 21 52 41 81 67 103 43 33 183 121 187 117 2 -2 -7 -35 -20 -75z m2453 42
c111 -64 159 -107 184 -164 47 -106 47 -106 -35 -52 -40 27 -95 62 -122 78
-43 26 -51 35 -67 89 -28 89 -28 88 40 49z m-252 -35 c48 -17 118 -45 154 -61
l66 -29 12 -67 c18 -91 27 -282 14 -282 -6 0 -39 13 -74 29 -35 15 -107 43
-160 60 l-96 32 -7 132 c-4 73 -11 151 -15 175 -10 52 -10 52 106 11z m455
-84 c10 -18 10 -19 -6 -6 -10 8 -24 28 -32 45 l-15 31 21 -25 c11 -14 26 -34
32 -45z m-2861 37 c-5 -10 -18 -25 -28 -33 -12 -10 -11 -5 6 19 24 35 38 43
22 14z m174 -85 c-3 -12 -9 -45 -13 -72 l-7 -50 -105 -3 c-105 -3 -105 -3 -85
17 23 23 194 131 207 131 4 0 6 -10 3 -23z m25 -52 c0 -62 -3 -75 -16 -75 -13
0 -15 7 -10 33 3 17 8 51 12 75 4 23 8 42 10 42 2 0 4 -34 4 -75z m2540 29
c41 -25 94 -61 117 -80 38 -31 43 -41 63 -125 21 -92 39 -259 27 -259 -4 0
-33 19 -65 43 -32 23 -91 60 -130 82 l-72 40 0 60 c-1 56 -10 143 -26 243 -4
24 -3 42 3 42 5 0 42 -21 83 -46z m-2800 -31 c-23 -58 -31 -68 -53 -71 -30 -4
-32 3 -14 34 15 27 80 102 88 103 4 1 -6 -29 -21 -66z m3028 -68 c58 -111 58
-115 -6 -52 -56 55 -62 67 -98 177 -10 30 79 -76 104 -125z m-1568 -25 l0 -60
-118 0 c-105 0 -242 11 -309 26 -18 3 -23 11 -23 33 0 29 1 30 67 37 88 9 253
21 326 23 l57 1 0 -60z m230 50 c80 -6 166 -13 193 -16 l47 -7 0 -67 0 -68
-62 20 c-47 14 -105 21 -225 25 l-163 6 0 59 0 58 33 0 c17 0 97 -5 177 -10z
m-690 -51 l0 -30 -82 6 c-121 9 -124 16 -18 35 52 10 96 18 98 19 1 0 2 -13 2
-30z m1260 -32 l95 -23 0 -91 c0 -50 -2 -94 -5 -96 -9 -9 -282 52 -299 66 -9
8 -37 27 -63 42 l-48 27 0 62 c0 35 2 65 5 68 7 7 196 -26 315 -55z m805 -67
c23 -30 49 -69 58 -85 42 -83 83 -285 58 -285 -27 0 -79 31 -112 66 -35 37
-37 44 -43 126 -5 77 -26 197 -43 253 l-6 20 23 -20 c12 -11 41 -45 65 -75z
m-3189 22 c-18 -16 -18 -16 -6 6 6 13 14 21 18 18 3 -4 -2 -14 -12 -24z m74
16 c0 -7 -5 -31 -10 -53 -5 -22 -14 -87 -20 -145 l-11 -104 -47 -51 c-26 -27
-62 -68 -80 -90 l-32 -40 6 95 c10 152 62 288 142 373 27 28 52 36 52 15z
m256 -19 c-3 -17 -6 -46 -6 -64 0 -31 -5 -36 -72 -73 -40 -22 -102 -61 -137
-87 l-63 -46 5 73 c5 67 21 168 33 211 5 15 20 17 126 17 l121 0 -7 -31z m54
-19 c0 -39 -4 -52 -20 -60 -19 -10 -20 -8 -20 50 0 53 2 60 20 60 17 0 20 -7
20 -50z m549 15 c90 -8 167 -17 171 -20 11 -7 29 -109 34 -197 l4 -77 -36 -6
c-103 -17 -253 -47 -300 -61 -29 -8 -56 -12 -61 -10 -8 5 -23 133 -37 304 l-6
82 33 0 c19 0 108 -7 198 -15z m1654 -6 c34 -11 106 -39 160 -61 l97 -40 0
-69 c0 -49 -4 -69 -12 -69 -22 0 -322 73 -331 80 -11 10 3 180 15 180 5 0 37
-9 71 -21z m-2200 -307 c2 -106 0 -187 -4 -180 -10 17 -39 267 -39 330 0 34 5
50 18 57 22 12 20 25 25 -207z m-42 -22 c7 -63 14 -131 16 -152 4 -30 1 -37
-16 -43 -11 -3 -70 -39 -131 -80 -67 -45 -112 -69 -115 -62 -19 63 -45 250
-45 327 0 43 3 48 48 81 74 56 110 80 166 110 l51 28 7 -47 c4 -26 12 -99 19
-162z m2623 155 c117 -73 166 -113 166 -134 0 -16 -13 -14 -132 19 l-133 37
-3 66 c-2 37 1 67 6 67 5 0 48 -25 96 -55z m-1781 -15 c7 -9 32 -31 56 -50
l43 -35 -63 -6 c-35 -4 -65 -6 -65 -5 -1 0 -4 35 -8 76 -7 81 -8 80 37 20z
m1207 -23 l65 -13 -2 -68 c0 -37 -4 -70 -7 -73 -3 -3 -20 -2 -37 3 -26 7 -39
22 -66 74 -19 36 -42 73 -51 83 -16 17 -15 18 8 13 14 -4 54 -12 90 -19z m295
-68 c72 -17 134 -35 138 -39 10 -9 -13 -180 -24 -180 -4 0 -57 20 -119 45 -62
25 -136 52 -164 60 l-52 15 7 53 c4 28 8 62 8 73 1 25 -19 27 206 -27z m-1972
-44 c4 -38 3 -53 -3 -40 -8 19 -14 113 -6 104 2 -2 6 -31 9 -64z m780 25 l87
0 0 -100 0 -100 -25 0 c-24 0 -25 2 -25 64 l0 64 -42 -10 c-71 -16 -131 -47
-178 -93 -35 -34 -55 -45 -92 -50 l-46 -7 -7 79 c-13 160 -16 147 35 155 25 3
81 4 125 2 44 -2 119 -4 168 -4z m219 -102 c3 -57 5 -104 4 -105 -1 -1 -27 1
-59 4 l-57 6 0 98 0 99 54 0 53 0 5 -102z m-568 20 c4 -40 9 -90 12 -110 5
-33 3 -38 -18 -42 -13 -3 -87 -17 -166 -32 -136 -25 -144 -26 -162 -9 -29 26
-58 94 -62 144 -4 52 -16 46 202 92 198 41 187 44 194 -43z m-1104 -44 c5 -54
17 -136 26 -181 l16 -82 -57 -63 c-31 -35 -64 -75 -73 -90 -9 -16 -19 -28 -23
-28 -9 0 -37 150 -49 260 -9 91 -8 96 15 136 26 44 125 158 131 151 2 -2 8
-48 14 -103z m3035 41 l57 -16 -6 -62 c-7 -62 -35 -209 -41 -215 -2 -2 -39 21
-82 50 -43 30 -100 67 -128 83 -27 15 -51 29 -53 30 -2 2 14 121 24 171 l4 21
84 -22 c46 -13 109 -30 141 -40z m100 55 c3 -5 2 -10 -4 -10 -5 0 -13 5 -16
10 -3 6 -2 10 4 10 5 0 13 -4 16 -10z m-746 -59 c12 -8 12 -22 1 -90 -7 -45
-15 -80 -17 -77 -3 2 -9 35 -13 73 -5 38 -12 76 -16 86 -7 19 20 24 45 8z
m152 -45 c86 -31 208 -82 216 -90 4 -4 -17 -101 -38 -178 l-9 -37 -63 29 c-34
15 -105 42 -157 60 -52 18 -98 35 -102 39 -4 3 -1 35 6 71 8 36 17 82 20 103
4 20 13 37 20 37 7 0 55 -15 107 -34z m-2725 -30 c-4 -25 -11 -48 -16 -51 -9
-6 -7 19 6 84 9 41 17 14 10 -33z m2229 -44 c7 -32 6 -33 -22 -30 -25 3 -28 7
-31 42 -2 22 0 51 3 65 l7 26 18 -35 c10 -19 21 -50 25 -68z m1139 79 c36 -13
54 -26 69 -53 20 -34 21 -41 9 -144 -7 -60 -20 -142 -30 -183 l-17 -73 -32 45
c-18 25 -53 66 -78 92 l-46 47 15 66 c8 37 17 94 21 127 12 107 9 104 89 76z
m126 -74 c0 -18 -2 -19 -10 -7 -13 20 -13 43 0 35 6 -3 10 -16 10 -28z m-2935
-69 c9 -29 27 -73 41 -99 20 -41 21 -48 8 -53 -29 -11 -32 -6 -54 87 -12 50
-23 98 -26 105 -2 6 0 12 5 12 5 0 16 -23 26 -52z m1165 -48 l0 -100 -25 0
-25 0 0 100 0 100 25 0 25 0 0 -100z m169 63 c39 -75 153 -163 213 -163 18 0
33 -16 21 -23 -5 -2 -57 2 -118 9 -60 7 -145 13 -187 14 l-78 0 0 100 0 100
65 0 c65 0 65 0 84 -37z m-1355 -82 c15 -57 25 -105 24 -106 -2 -1 -25 -14
-53 -30 -27 -15 -83 -51 -123 -78 -40 -27 -74 -48 -76 -46 -8 9 -64 194 -60
200 11 19 253 173 260 166 1 -1 14 -49 28 -106z m851 82 c-12 -32 -35 -127
-35 -145 0 -10 -4 -18 -9 -18 -13 0 -29 163 -16 172 5 4 23 8 39 8 23 0 27 -3
21 -17z m1682 -40 c50 -32 105 -70 123 -84 l32 -26 -32 -97 c-17 -53 -34 -96
-37 -96 -2 0 -32 20 -66 44 -34 24 -88 58 -119 76 -32 17 -58 37 -58 43 -1 34
46 197 55 197 7 0 53 -26 102 -57z m-1763 20 c2 -16 8 -54 11 -85 l6 -58 -48
0 c-27 0 -76 7 -108 15 -61 16 -167 74 -167 91 1 9 63 25 191 48 108 20 109
20 115 -11z m915 18 c11 -7 11 -17 -2 -62 -9 -30 -23 -63 -31 -74 -14 -18 -15
-13 -16 63 0 72 2 82 18 82 9 0 23 -4 31 -9z m-2181 -259 c16 -67 17 -84 6
-104 -7 -12 -21 -52 -30 -87 -16 -59 -19 -62 -25 -37 -30 112 -35 383 -8 456
13 35 13 35 25 -57 7 -50 21 -127 32 -171z m3458 13 c-2 -88 -10 -189 -17
-225 l-13 -65 -12 50 c-6 28 -19 69 -29 92 -17 41 -16 46 9 172 14 71 26 147
26 168 0 57 13 62 28 11 10 -31 12 -86 8 -203z m-829 141 c128 -45 213 -85
213 -99 0 -12 -50 -169 -56 -176 -2 -2 -40 13 -86 32 -46 19 -116 45 -156 58
-55 17 -71 27 -67 38 2 9 11 48 20 86 18 79 23 95 29 95 2 0 48 -15 103 -34z
m-2402 -164 l28 -92 -60 -63 c-33 -34 -65 -73 -72 -86 -17 -30 -22 -23 -59 80
l-31 86 26 39 c35 53 126 146 134 136 3 -4 19 -49 34 -100z m3091 -27 l35 -51
-32 -92 c-18 -51 -35 -92 -39 -92 -3 0 -13 12 -22 28 -9 15 -41 54 -72 88
l-55 61 32 97 31 96 44 -43 c23 -23 59 -65 78 -92z m-2643 18 l49 -52 -57 -26
c-32 -14 -60 -23 -63 -21 -6 7 -63 178 -60 181 31 23 44 23 63 -3 11 -15 42
-50 68 -79z m1382 77 c20 -1 20 -1 1 -15 -27 -20 -46 -18 -76 6 l-25 21 40 -6
c22 -3 49 -6 60 -6z m982 -110 l73 -50 -20 -50 c-11 -28 -29 -69 -40 -90 l-20
-40 -58 43 c-32 23 -84 56 -115 72 -31 17 -57 34 -57 39 0 5 11 44 26 85 14
42 27 82 29 89 5 15 70 -20 182 -98z m-2479 10 l30 -89 -56 -32 c-32 -17 -85
-51 -118 -75 l-62 -43 -36 79 c-20 44 -36 83 -36 88 0 5 10 18 23 29 30 29
197 133 213 133 7 0 26 -40 42 -90z m1899 48 c-3 -8 -6 -5 -6 6 -1 11 2 17 5
13 3 -3 4 -12 1 -19z m-7 -39 c0 -5 -7 -9 -15 -9 -9 0 -12 6 -9 15 6 15 24 11
24 -6z m213 -59 c61 -23 107 -47 107 -55 0 -11 -57 -154 -65 -163 -1 -2 -16
21 -33 50 -30 55 -146 171 -188 190 -23 11 -31 28 -18 40 7 8 70 -12 197 -62z
m-1857 -30 c37 -21 88 -47 114 -56 l46 -17 42 -125 c23 -69 39 -129 37 -133
-3 -4 -19 -11 -37 -14 -17 -4 -69 -23 -115 -41 -46 -19 -88 -34 -92 -34 -9 0
-154 295 -176 358 l-15 43 63 29 c34 16 63 29 63 30 1 0 32 -18 70 -40z m-740
-242 c-14 -40 -27 -82 -28 -93 -2 -13 -16 9 -37 60 -32 77 -33 83 -24 145 6
36 18 83 27 105 l17 40 35 -92 35 -93 -25 -72z m237 155 l37 -87 -58 -60 c-31
-34 -64 -72 -73 -85 -15 -24 -15 -24 -57 59 -41 82 -41 84 -24 113 20 34 120
147 131 147 3 0 23 -39 44 -87z m2888 22 c20 -22 46 -55 58 -73 26 -37 23 -52
-31 -149 l-29 -53 -36 48 c-19 26 -51 63 -70 83 -39 41 -39 40 8 145 33 73 35
73 100 -1z m194 12 c25 -86 24 -163 -4 -229 -13 -32 -27 -58 -31 -58 -4 0 -10
18 -14 39 -3 22 -15 59 -25 84 l-19 44 31 86 c18 48 35 87 39 87 4 0 14 -24
23 -53z m-2756 -59 c19 -46 61 -137 94 -202 36 -72 56 -121 49 -124 -6 -2 -47
-27 -91 -57 l-80 -54 -29 37 c-46 59 -106 150 -160 246 l-51 88 30 25 c31 26
187 123 199 123 3 0 21 -37 39 -82z m2250 36 c42 -25 91 -58 110 -73 l34 -28
-48 -84 c-60 -104 -184 -289 -195 -289 -22 0 -31 37 -34 141 -2 71 -9 129 -18
155 -15 38 -15 43 7 95 13 30 30 71 38 92 9 20 19 37 23 37 3 0 41 -20 83 -46z
m-1706 -21 l138 -6 -3 -85 -3 -85 -90 -19 c-158 -33 -143 -40 -187 87 -21 61
-38 114 -38 119 0 4 10 5 23 2 12 -4 84 -10 160 -13z m-758 -207 c25 -44 74
-121 109 -170 l64 -89 -33 -33 c-18 -18 -46 -49 -61 -70 l-29 -37 -58 64 c-63
69 -197 260 -197 280 0 16 42 72 94 127 47 49 40 54 111 -72z m1265 90 c0 -17
-7 -25 -25 -28 -22 -5 -25 -2 -25 23 0 24 4 29 25 29 20 0 25 -5 25 -24z m346
8 c-3 -9 -6 -25 -6 -36 0 -19 -5 -19 -117 -13 -190 10 -203 12 -203 41 l0 24
166 0 c147 0 165 -2 160 -16z m258 0 c56 -19 62 -30 46 -80 -11 -31 -16 -35
-39 -31 -56 10 -256 51 -259 53 -2 1 0 18 3 38 l7 36 97 0 c64 0 114 -6 145
-16z m817 -49 c20 -22 45 -55 58 -72 l22 -33 -44 -67 c-51 -80 -205 -273 -217
-273 -4 0 -16 12 -25 27 -10 14 -35 45 -56 68 l-39 43 83 123 c46 68 98 152
116 186 38 70 39 70 102 -2z m-2940 -165 c-11 -37 -21 -75 -21 -86 -1 -17 -3
-16 -21 6 -12 14 -32 46 -45 73 -23 44 -24 52 -14 109 7 34 19 76 27 92 l16
30 40 -79 39 -79 -21 -66z m3165 87 c6 -51 4 -60 -30 -121 -36 -64 -56 -77
-56 -36 0 11 -9 44 -20 74 l-21 55 42 83 42 83 18 -41 c10 -23 21 -66 25 -97z
m-1646 -122 l0 -195 -114 0 -114 0 -16 67 c-12 47 -14 69 -6 71 6 2 32 18 58
35 54 37 108 112 125 174 10 38 15 43 39 43 l28 0 0 -195z m288 179 l43 -6 -6
-37 c-3 -20 -21 -101 -38 -181 l-32 -145 -118 -3 -117 -3 0 197 0 197 113 -7
c61 -3 131 -9 155 -12z m430 -24 c35 -52 30 -62 -22 -44 l-44 15 11 35 c12 41
24 39 55 -6z m-213 -12 c55 -11 105 -23 112 -27 10 -5 -47 -158 -107 -283
l-13 -28 -114 0 c-62 0 -113 3 -113 7 0 7 70 332 75 349 4 13 18 11 160 -18z
m-875 -104 l0 -126 36 6 c19 4 41 9 48 12 9 3 17 -11 25 -43 7 -26 14 -56 17
-65 5 -16 -5 -18 -113 -18 l-118 0 -19 43 c-62 141 -106 261 -99 268 7 6 176
45 211 48 9 1 12 -30 12 -125z m-201 -54 c26 -63 64 -150 83 -192 l36 -77 -51
-17 c-29 -9 -65 -23 -82 -32 -29 -15 -30 -14 -67 29 -38 43 -153 208 -197 282
l-23 37 48 21 c74 33 178 69 192 66 7 -1 35 -54 61 -117z m1294 101 c24 -9 27
-15 27 -58 -1 -64 -28 -121 -79 -164 -53 -46 -163 -80 -148 -46 4 6 32 74 64
150 64 152 58 147 136 118z m-2363 -35 c0 -12 -5 -7 -19 24 -11 24 -11 24 3 6
9 -11 16 -24 16 -30z m3321 17 c-12 -20 -14 -14 -5 12 4 9 9 14 11 11 3 -2 0
-13 -6 -23z m-3093 -98 c34 -49 91 -123 126 -164 36 -41 62 -80 58 -85 -3 -6
-13 -37 -22 -69 l-16 -59 -87 91 c-47 50 -107 121 -133 157 l-47 66 12 60 c14
69 32 112 41 101 4 -5 35 -48 68 -98z m2946 42 c35 -105 15 -146 -159 -326
-69 -71 -91 -89 -93 -75 -2 11 -10 42 -19 71 l-15 52 54 63 c66 76 134 166
173 230 16 26 33 44 36 40 4 -4 14 -29 23 -55z m93 -74 c-15 -38 -36 -81 -47
-98 l-20 -30 6 44 c7 44 71 167 82 156 3 -3 -7 -35 -21 -72z m-3208 16 c19
-31 34 -70 37 -98 l4 -46 -40 80 c-34 68 -49 115 -36 115 1 0 17 -23 35 -51z
m748 -33 c29 -46 83 -123 119 -172 37 -49 68 -93 70 -99 2 -5 -24 -27 -57 -48
l-61 -38 -41 37 c-49 43 -220 227 -248 266 l-19 26 67 45 c72 46 105 66 113
67 3 0 29 -38 57 -84z m1895 -71 c-18 -20 -32 -34 -32 -32 0 2 7 25 16 51 15
43 18 46 32 32 14 -13 12 -18 -16 -51z m-2102 -22 c19 -26 85 -98 147 -161
l112 -115 -37 -46 c-20 -25 -37 -47 -38 -49 -6 -11 -195 137 -281 220 -56 53
-62 62 -52 81 14 24 99 117 108 117 3 0 22 -22 41 -47z m2213 -19 c26 -32 46
-65 45 -73 -4 -20 -174 -169 -263 -230 l-71 -50 -42 49 -41 48 54 45 c30 25
98 97 151 161 53 64 102 115 108 113 6 -2 33 -30 59 -63z m-2648 -9 c21 -27
77 -90 124 -138 80 -82 86 -92 98 -149 7 -34 10 -64 8 -66 -9 -9 -161 153
-204 216 -48 71 -65 109 -76 167 -7 44 -8 44 50 -30z m3016 -3 c-7 -26 -36
-83 -66 -127 -53 -79 -199 -234 -210 -223 -3 3 -1 17 5 32 5 15 10 41 10 57 0
23 18 47 93 123 50 51 110 119 132 149 44 62 53 59 36 -11z m-2512 -281 c114
-83 105 -71 90 -121 -7 -25 -14 -47 -15 -49 -7 -9 -221 128 -296 191 -40 33
-48 45 -48 74 0 19 7 51 15 70 l14 35 88 -77 c49 -42 117 -97 152 -123z m2220
167 c29 -92 27 -99 -36 -149 -102 -81 -290 -199 -297 -187 -1 2 -7 23 -14 48
-10 42 -10 46 11 60 73 50 183 138 243 194 38 36 72 65 76 66 3 0 11 -15 17
-32z m-1528 -247 c22 -29 39 -54 37 -56 -2 -2 -20 -10 -41 -19 l-38 -16 -141
140 c-77 77 -138 145 -136 152 2 6 38 24 78 39 l74 27 63 -107 c35 -58 82
-130 104 -160z m-83 -113 c-13 -10 -28 -18 -34 -18 -22 0 -271 171 -348 241
-5 4 19 25 53 47 l62 39 145 -146 144 -146 -22 -17z m88 214 c23 -12 61 -26
86 -32 38 -10 47 -17 59 -48 8 -20 15 -40 17 -43 1 -3 -21 -11 -49 -17 -41
-10 -55 -10 -67 0 -17 15 -110 151 -119 176 -6 16 -5 16 13 1 10 -9 38 -26 60
-37z m-796 -109 c41 -27 98 -63 127 -78 45 -26 52 -34 57 -68 4 -22 5 -42 2
-44 -6 -6 -178 81 -252 128 -50 32 -66 48 -83 89 -11 27 -21 61 -21 75 l0 27
48 -39 c26 -22 81 -62 122 -90z m2334 95 c-13 -69 -41 -115 -90 -149 -51 -35
-250 -139 -266 -139 -5 0 -7 8 -5 18 3 9 8 29 11 43 4 19 27 38 95 78 49 29
126 81 172 116 46 35 85 64 86 65 1 0 0 -15 -3 -32z m-1949 -45 c58 -47 173
-126 261 -180 18 -11 18 -12 -2 -33 l-21 -21 -103 45 c-105 47 -275 140 -285
156 -6 9 61 90 74 90 3 0 38 -26 76 -57z m1406 29 c-74 -59 -209 -153 -257
-178 -50 -27 -50 -27 -78 -8 l-29 18 79 72 c75 69 82 73 139 79 33 4 85 15
115 25 30 10 57 18 60 19 3 0 -10 -12 -29 -27z m108 -9 c17 -21 31 -42 31 -48
0 -18 -186 -120 -329 -180 l-65 -27 -17 23 c-17 22 -16 23 65 74 86 54 240
168 251 185 12 19 34 10 64 -27z m-873 -13 c43 0 44 0 44 -34 0 -33 -1 -34
-44 -38 -42 -3 -46 -1 -60 30 -20 42 -20 56 0 48 9 -3 36 -6 60 -6z m175 -38
c-18 -36 -21 -37 -65 -34 -45 4 -46 5 -46 38 l0 34 65 0 65 0 -19 -38z m152
-12 c-29 -39 -43 -50 -58 -46 -11 2 -36 8 -56 11 l-37 7 17 39 16 39 78 0 77
0 -37 -50z m142 -10 c-67 -68 -88 -77 -133 -58 l-32 13 41 53 40 52 72 0 71 0
-59 -60z m-1226 -24 c52 -33 245 -129 304 -151 41 -15 47 -21 41 -39 -4 -12
-8 -23 -10 -25 -12 -13 -252 68 -356 120 l-56 28 9 38 c5 21 9 41 9 46 0 13
20 7 59 -17z m1690 -7 c21 -61 18 -64 -96 -112 -102 -43 -268 -97 -299 -97 -8
0 -14 10 -14 23 0 20 14 30 98 66 53 22 140 66 192 96 52 30 98 55 102 55 3 0
11 -14 17 -31z m-2108 4 c13 -16 12 -17 -3 -4 -10 7 -18 15 -18 17 0 8 8 3 21
-13z m2479 13 c0 -2 -8 -10 -17 -17 -16 -13 -17 -12 -4 4 13 16 21 21 21 13z
m-1072 -42 c248 -51 348 -200 207 -308 -182 -139 -602 -139 -765 2 -105 90
-82 185 63 257 39 19 101 42 137 49 89 20 264 20 358 0z m981 -35 c-32 -46
-133 -117 -224 -159 -106 -49 -118 -53 -109 -37 31 52 58 72 168 126 67 33
135 68 151 79 40 27 40 27 14 -9z m-2243 -24 c43 -25 108 -57 144 -72 49 -20
73 -37 94 -66 15 -22 26 -41 24 -43 -2 -2 -54 21 -114 50 -83 40 -126 68 -175
114 -35 34 -61 61 -58 62 3 0 41 -20 85 -45z m327 -54 c92 -38 139 -54 245
-81 32 -8 42 -16 42 -31 0 -17 -5 -19 -37 -14 -91 15 -145 27 -244 56 -88 25
-109 35 -118 55 -15 34 -14 68 2 61 6 -3 56 -24 110 -46z m1647 39 c0 -6 -6
-25 -14 -43 -12 -31 -21 -35 -117 -65 -115 -34 -277 -67 -287 -57 -16 16 20
39 85 55 69 18 263 91 293 110 20 13 40 13 40 0z m-1555 -146 c77 -19 156 -36
175 -39 20 -3 41 -14 48 -25 12 -19 10 -20 -35 -20 -53 0 -141 12 -227 30 -57
12 -107 44 -127 83 -10 17 -9 19 7 13 11 -4 82 -23 159 -42z m1476 2 c-37 -38
-52 -45 -118 -60 -41 -9 -116 -19 -166 -23 -75 -5 -89 -4 -85 8 7 22 46 36
148 54 52 9 127 27 165 40 99 33 105 31 56 -19z m-1606 -47 c11 -4 34 -19 50
-34 30 -26 30 -26 -30 4 -75 38 -100 55 -65 45 14 -4 34 -10 45 -15z m1664 17
c-2 -2 -38 -20 -79 -41 -64 -31 -71 -33 -45 -11 17 14 48 32 70 40 40 14 62
19 54 12z m-1509 -55 c30 -6 94 -13 142 -15 57 -2 96 -9 110 -19 23 -15 23
-15 -16 -22 -21 -4 -78 -5 -126 -2 -87 5 -136 22 -185 62 l-20 16 20 -5 c11
-2 45 -9 75 -15z m1355 3 c-51 -40 -101 -57 -181 -62 -45 -2 -99 -1 -119 2
-35 7 -36 9 -22 23 12 12 41 17 109 20 51 2 120 10 153 17 80 18 83 18 60 0z
m-1012 -85 c37 -16 20 -26 -57 -35 -53 -6 -179 17 -190 35 -7 12 217 12 247 0z
m787 2 l55 -7 -60 -18 c-45 -14 -76 -17 -124 -12 -79 8 -91 15 -60 32 26 14
100 16 189 5z m-490 -55 c128 -3 174 -11 148 -27 -29 -19 -327 -7 -458 18
l-35 7 55 16 c48 14 62 14 110 2 30 -7 111 -15 180 -16z m305 11 l50 -14 -79
-11 c-71 -11 -82 -11 -105 5 l-26 17 30 7 c48 11 76 10 130 -4z"/>
</g>
</svg>
