<?xml version="1.0" encoding="UTF-8"?>
<svg version="1.1" xmlns="http://www.w3.org/2000/svg" width="512" height="512">
<path d="M0 0 C1.2065625 0.2165625 1.2065625 0.2165625 2.4375 0.4375 C4.97403018 0.99429931 6.90680053 1.83672235 9.25 2.9375 C13.17237674 4.75743025 16.90034036 5.77289833 21.15234375 6.5078125 C23 7 23 7 25 9 C26.98559792 9.72442394 26.98559792 9.72442394 29.3125 10.3125 C34.52206714 11.79988 39.50384971 13.69226351 44.546875 15.6640625 C48.18396583 17.0711723 51.83294715 18.42280305 55.5 19.75 C56.6240625 20.15734375 57.748125 20.5646875 58.90625 20.984375 C61.60754695 21.8711644 64.20208757 22.5197613 67 23 C67 23.66 67 24.32 67 25 C67.75023437 25.17015625 68.50046875 25.3403125 69.2734375 25.515625 C75.36520021 26.9580071 81.09035319 28.65885187 86.84375 31.1328125 C88.94539762 32.03692013 88.94539762 32.03692013 91.01953125 32.49609375 C93.24456084 33.06222554 95.12113634 33.94007492 97.1875 34.9375 C101.6919055 36.99516032 106.1395736 38.1267319 111 39 C111 39.66 111 40.32 111 41 C111.75023437 41.17015625 112.50046875 41.3403125 113.2734375 41.515625 C119.36520021 42.9580071 125.09035319 44.65885187 130.84375 47.1328125 C132.94539762 48.03692013 132.94539762 48.03692013 135.01953125 48.49609375 C137.24456084 49.06222554 139.12113634 49.94007492 141.1875 50.9375 C145.6919055 52.99516032 150.1395736 54.1267319 155 55 C155 55.66 155 56.32 155 57 C155.75023437 57.17015625 156.50046875 57.3403125 157.2734375 57.515625 C163.36520021 58.9580071 169.09035319 60.65885187 174.84375 63.1328125 C176.94050305 64.03325644 176.94050305 64.03325644 178.984375 64.49609375 C181.35780365 65.08945091 183.49652666 65.98659167 185.75 66.9375 C190.12612907 68.7230126 194.39008549 69.97557455 199 71 C199 71.66 199 72.32 199 73 C199.721875 73.226875 200.44375 73.45375 201.1875 73.6875 C204.69591092 75.32475843 206.51229375 77.02035184 209 80 C209.83286462 82.75602475 210.33382535 85.05690326 210.6875 87.875 C210.8014209 88.6693042 210.9153418 89.4636084 211.03271484 90.28198242 C212.30472578 99.93868038 212.81820522 109.69038428 213.35424805 119.41162109 C213.46119995 121.33675537 213.46119995 121.33675537 213.5703125 123.30078125 C213.62977051 124.44716064 213.68922852 125.59354004 213.75048828 126.7746582 C213.94204218 129.94795006 213.94204218 129.94795006 214.50750732 132.83560181 C214.98483326 135.90254958 215.12690086 138.75512253 215.12939453 141.85571289 C215.13254669 142.9887233 215.13569885 144.1217337 215.13894653 145.28907776 C215.13591019 147.11244911 215.13591019 147.11244911 215.1328125 148.97265625 C215.13424759 150.88285805 215.13424759 150.88285805 215.13571167 152.83164978 C215.13639191 155.53241364 215.13505471 158.23308699 215.13037109 160.93383789 C215.12475911 164.32898991 215.12799853 167.72406212 215.13380814 171.1192112 C215.1517385 183.43944822 215.12933426 195.74966008 214.5546875 208.05859375 C214.51594513 208.89093033 214.47720276 209.72326691 214.43728638 210.58082581 C214.21068099 214.79030386 213.7501291 218.8447418 213 223 C213.00517252 224.41726984 213.04638349 225.83490283 213.125 227.25 C213.2042181 233.06812928 212.15635329 238.60602757 211.1394043 244.31103516 C210.23237325 249.43782565 209.6329006 254.50104906 209.24609375 259.6953125 C208.94170079 262.54597672 208.23038504 265.17528835 207.4609375 267.9296875 C206.92451006 270.33906498 206.77581677 272.66165936 206.625 275.125 C206.18347275 280.90499314 204.65867099 286.15504368 202.984375 291.6875 C201.77341229 295.76248564 200.87208413 299.84082952 200 304 C199.2861723 307.05385378 198.37966636 310.01123911 197.40625 312.9921875 C197.09816406 313.94480469 196.79007812 314.89742188 196.47265625 315.87890625 C195.82651277 317.86923578 195.17809074 319.8588271 194.52734375 321.84765625 C193.28740805 325.69197571 192.10349292 329.37248307 191.4453125 333.36328125 C190.92729421 336.43049481 189.85348649 338.58085784 188.375 341.3125 C185.71266711 346.4502223 183.38352906 351.6516804 181.1875 357 C180.88569824 357.73001221 180.58389648 358.46002441 180.27294922 359.2121582 C178.6871791 363.08160045 178.6871791 363.08160045 177.48901367 367.08154297 C176.37591412 371.4483609 173.44895919 375.28245695 171.13916016 379.10888672 C169.92101309 381.13112572 168.71668321 383.16128804 167.51171875 385.19140625 C162.31796552 393.87374332 156.86979759 402.26972432 150.8840332 410.43041992 C148.06758249 414.28868802 148.06758249 414.28868802 146.01953125 418.578125 C144.50874346 422.16696957 141.91255031 424.66946458 139.25 427.4375 C138.35462524 428.3819397 138.35462524 428.3819397 137.44116211 429.34545898 C131.56467783 435.49853536 125.56691515 441.53460067 119.5625 447.5625 C119.09082397 448.0369455 118.61914795 448.51139099 118.13317871 449.00021362 C103.47965035 463.71650277 103.47965035 463.71650277 98 465 C96.04579948 466.34278149 94.1355378 467.74989469 92.25 469.1875 C82.88371821 476.13095402 72.70631124 481.77152478 62.58251953 487.52246094 C61.0117252 488.42116082 59.44801408 489.33260197 57.89794922 490.26660156 C55.50026009 491.70534454 53.42526396 492.91582716 50.66381836 493.46240234 C47.67215723 494.06616348 45.10517553 495.07541928 42.2890625 496.25 C41.20882813 496.6934375 40.12859375 497.136875 39.015625 497.59375 C36.76187251 498.52848606 34.50925811 499.46597109 32.2578125 500.40625 C26.79137982 502.64488434 21.93186345 504.47402196 16 505 C13.53710515 505.47702384 11.07851384 505.97686272 8.625 506.5 C7.40039062 506.7578125 6.17578125 507.015625 4.9140625 507.28125 C2.12487351 507.70272652 2.12487351 507.70272652 1 509 C-2.93040688 509.25741245 -6.87469409 509.18525368 -10.8125 509.1875 C-11.89982422 509.19974609 -12.98714844 509.21199219 -14.10742188 509.22460938 C-21.61025382 509.23798341 -28.64240479 508.41555084 -36 507 C-37.0516333 506.82815186 -38.1032666 506.65630371 -39.18676758 506.47924805 C-41.89765132 506.0174356 -44.38416212 505.33840958 -47 504.5 C-49.88168876 503.60164221 -52.50723279 502.91848044 -55.5 502.4375 C-58 502 -58 502 -60 500 C-61.461051 499.50535847 -62.94491433 499.07676634 -64.4375 498.6875 C-70.26199994 497.01150429 -75.53530207 494.59556471 -81 492 C-82.40939803 491.35640989 -83.81961224 490.7146053 -85.23046875 490.07421875 C-86.73713595 489.38315422 -88.24364638 488.69174779 -89.75 488 C-90.45906494 487.6800708 -91.16812988 487.3601416 -91.89868164 487.03051758 C-96.70080937 484.80174122 -100.72666708 482.12062343 -105 479 C-106.21459443 478.44603392 -107.44444441 477.92425544 -108.6875 477.4375 C-112.07663951 475.96674135 -113.43831201 474.56168799 -116 472 C-117.29492602 471.31961514 -118.60992589 470.67675071 -119.9375 470.0625 C-123.70944038 468.29571752 -126.12779956 466.03632618 -129 463 C-129.99 462.67 -130.98 462.34 -132 462 C-133.32421875 460.546875 -133.32421875 460.546875 -134.6875 458.75 C-137.48684814 455.31921994 -140.37814818 453.31009545 -144.265625 451.23828125 C-146.36195368 449.74157811 -146.95048447 448.31729314 -148 446 C-149.30144802 444.95884159 -150.63838689 443.96113866 -152 443 C-155.3049384 439.90828343 -158.10577409 436.47307109 -161 433 C-161.66 432.360625 -162.32 431.72125 -163 431.0625 C-165.29683304 428.69389092 -167.03854269 426.13902445 -168.8515625 423.390625 C-169.23054688 422.93171875 -169.60953125 422.4728125 -170 422 C-170.66 422 -171.32 422 -172 422 C-173.40234375 419.91796875 -173.40234375 419.91796875 -174.9375 417.1875 C-176.7314382 414.00796247 -178.4243551 411.56026791 -181 409 C-181 408.34 -181 407.68 -181 407 C-181.66 406.67 -182.32 406.34 -183 406 C-184.25390625 404.2578125 -184.25390625 404.2578125 -185.5625 402.125 C-185.99691406 401.42632812 -186.43132812 400.72765625 -186.87890625 400.0078125 C-188 398 -188 398 -189 395 C-189.66 394.67 -190.32 394.34 -191 394 C-194 388.57692308 -194 388.57692308 -194 386 C-194.66 386 -195.32 386 -196 386 C-196.64995297 384.58521865 -197.29478722 383.16808513 -197.9375 381.75 C-198.29714844 380.96109375 -198.65679687 380.1721875 -199.02734375 379.359375 C-199.90033279 377.24176302 -200.51338508 375.23330638 -201 373 C-201.66 373 -202.32 373 -203 373 C-203.32613281 372.13117188 -203.65226562 371.26234375 -203.98828125 370.3671875 C-204.42527344 369.21476562 -204.86226562 368.06234375 -205.3125 366.875 C-205.95638672 365.16957031 -205.95638672 365.16957031 -206.61328125 363.4296875 C-207.92518949 360.18502431 -209.41750117 357.11930871 -211 354 C-214.04736711 347.11555175 -216.71995647 340.17153226 -219 333 C-219.45781258 331.66648777 -219.91616802 330.33316182 -220.375 329 C-223.77618662 318.79644013 -226.69078942 308.40426121 -229.421875 298.00390625 C-229.9478501 295.95283371 -229.9478501 295.95283371 -231 294 C-231.22283355 292.16162319 -231.44382786 290.32300734 -231.65625 288.48339844 C-232.49898543 282.39511376 -233.9190553 276.38697709 -235.18359375 270.375 C-236.37880897 264.56158634 -237.3323783 258.86086514 -237.77148438 252.93896484 C-237.89809774 250.92092779 -237.89809774 250.92092779 -239 249 C-239.2083014 246.60742698 -239.36743743 244.21046212 -239.5 241.8125 C-239.77900302 236.81535655 -240.28943507 231.95174933 -241 227 C-241.28405472 223.20865851 -241.50118867 219.41676191 -241.71875 215.62109375 C-241.9313441 212.11318066 -241.9313441 212.11318066 -242.50949097 209.1396637 C-242.98723803 206.08168716 -243.12690781 203.23624114 -243.12939453 200.14428711 C-243.13412277 198.4447715 -243.13412277 198.4447715 -243.13894653 196.71092224 C-243.1369223 195.49534134 -243.13489807 194.27976044 -243.1328125 193.02734375 C-243.13376923 191.75387589 -243.13472595 190.48040802 -243.13571167 189.16835022 C-243.13639191 186.46758636 -243.13505471 183.76691301 -243.13037109 181.06616211 C-243.1247591 177.6710053 -243.12799264 174.27592835 -243.13381672 170.8807745 C-243.15605053 155.55849252 -242.9557959 140.2943438 -242 125 C-241.92225342 123.73687988 -241.84450684 122.47375977 -241.7644043 121.17236328 C-241.54403276 117.77805531 -241.27844476 114.39006493 -241 111 C-240.89751953 109.72044434 -240.89751953 109.72044434 -240.79296875 108.41503906 C-240.55722157 105.50515967 -240.31110979 102.59630694 -240.0625 99.6875 C-239.98781494 98.76783447 -239.91312988 97.84816895 -239.83618164 96.90063477 C-238.35747579 80.15357206 -238.35747579 80.15357206 -232.125 74.5703125 C-226.01749849 70.05704852 -220.46603318 68.04928034 -213 67 C-205.42204492 64.7327177 -198.19460053 61.8617848 -191.28125 58.015625 C-189 57 -189 57 -186.20703125 56.53515625 C-182.33433981 55.8889215 -178.83154955 54.59682728 -175.1875 53.1875 C-174.12909912 52.78591675 -174.12909912 52.78591675 -173.04931641 52.3762207 C-168.61208443 50.67591095 -164.25889154 48.85966244 -159.9921875 46.76171875 C-158 46 -158 46 -155.21557617 45.57714844 C-152.10124463 45.01817192 -149.49093724 44.17343242 -146.55859375 43.00390625 C-145.56279297 42.61009766 -144.56699219 42.21628906 -143.54101562 41.81054688 C-142.51685547 41.39869141 -141.49269531 40.98683594 -140.4375 40.5625 C-139.40947266 40.15451172 -138.38144531 39.74652344 -137.32226562 39.32617188 C-133.64266901 37.86434898 -129.96744231 36.392152 -126.2980957 34.90478516 C-124.12812884 34.05044571 -122.00059302 33.41562655 -119.75 32.8125 C-114.91925052 31.4035314 -110.37241382 29.52777342 -105.75 27.5625 C-100.59415626 25.37653956 -95.55512834 23.48679596 -90.125 22.0625 C-83.28318153 20.25072925 -76.94291116 17.58095237 -70.48291016 14.72875977 C-66.62810076 13.03879776 -63.15933211 11.73516857 -59 11 C-56.24273886 10.16296766 -53.52869102 9.21100296 -50.8125 8.25 C-50.05799561 7.98485596 -49.30349121 7.71971191 -48.52612305 7.4465332 C-43.47190015 5.63095962 -38.74941996 3.48224258 -34.00390625 0.9609375 C-31.38013449 -0.29724545 -28.87699604 -0.67306863 -26 -1 C-25.13375 -1.350625 -24.2675 -1.70125 -23.375 -2.0625 C-15.12350981 -4.35458061 -7.71541315 -3.38395314 0 0 Z M-23.3125 33.875 C-28.15998474 35.91965048 -32.91805792 37.59208889 -38 39 C-40.78657753 39.89324394 -43.55093922 40.84493902 -46.3125 41.8125 C-47.05798096 42.07313232 -47.80346191 42.33376465 -48.5715332 42.60229492 C-53.54239049 44.37941283 -58.21881092 46.41793889 -62.82421875 49.01953125 C-65 50 -65 50 -67.78125 50.4609375 C-71.65770093 51.11014894 -75.16448247 52.40163812 -78.8125 53.8125 C-79.87090088 54.21408325 -79.87090088 54.21408325 -80.95068359 54.6237793 C-85.38791557 56.32408905 -89.74110846 58.14033756 -94.0078125 60.23828125 C-96 61 -96 61 -98.78442383 61.42285156 C-101.89875537 61.98182808 -104.50906276 62.82656758 -107.44140625 63.99609375 C-108.43720703 64.38990234 -109.43300781 64.78371094 -110.45898438 65.18945312 C-111.48314453 65.60130859 -112.50730469 66.01316406 -113.5625 66.4375 C-115.10454102 67.04948242 -115.10454102 67.04948242 -116.67773438 67.67382812 C-120.35429214 69.13444375 -124.02640535 70.60565489 -127.69311523 72.09082031 C-129.94283853 72.97747176 -132.17202597 73.66274012 -134.5 74.3125 C-141.76879033 76.45614026 -149.15224439 78.91668481 -155.828125 82.53125 C-158.48393171 83.76103242 -160.45042795 84.38141029 -163.265625 84.9453125 C-168.37299213 85.98174474 -172.96149438 87.8551043 -177.75 89.875 C-184.55635573 92.6783224 -191.28753667 95.19245386 -198.37109375 97.2109375 C-200.98866798 97.99659871 -203.47917831 98.94775138 -206 100 C-207.24820578 110.35342116 -208.23889303 120.45732562 -207.97265625 130.8984375 C-208 134 -208 134 -208.49609375 136.46484375 C-209.14917725 139.75051191 -209.05461738 142.83877211 -209 146.1875 C-208.93577778 151.95160959 -209.14367847 157.62751011 -209.5625 163.375 C-210.3153306 174.33449975 -209.63273625 185.25114766 -209.1081543 196.20849609 C-209.01360625 198.64881742 -208.97778488 201.073957 -208.9921875 203.515625 C-208.99805858 206.13412738 -208.91356492 208.54332257 -208.5625 211.125 C-208.10032504 214.89300978 -207.80719811 218.64904888 -207.5625 222.4375 C-206.17806694 241.90221563 -204.02062601 262.0978135 -199 281 C-198.34 281 -197.68 281 -197 281 C-197.061875 282.27875 -197.12375 283.5575 -197.1875 284.875 C-197.17899644 290.33428741 -195.7256604 294.86670639 -194 300 C-193.30876169 302.26969819 -192.62138281 304.5405747 -191.9375 306.8125 C-191.03391314 309.79179643 -190.12557343 312.69463878 -188.94140625 315.57421875 C-187.98126864 318.04826627 -187.50910576 320.40109722 -187 323 C-186.45704464 324.53571198 -185.87160044 326.05690221 -185.25 327.5625 C-184.89035156 328.43519531 -184.53070313 329.30789063 -184.16015625 330.20703125 C-183.77730469 331.12871094 -183.39445312 332.05039062 -183 333 C-182.62746094 333.93199219 -182.25492188 334.86398437 -181.87109375 335.82421875 C-178.65616451 343.77135408 -174.89148687 351.36910735 -171 359 C-170.10275128 360.81179975 -169.20675709 362.62422179 -168.3125 364.4375 C-166.34096994 368.38056012 -164.23519424 372.20016979 -162 376 C-161.195625 377.4540625 -161.195625 377.4540625 -160.375 378.9375 C-159.92125 379.618125 -159.4675 380.29875 -159 381 C-158.34 381 -157.68 381 -157 381 C-156.74863281 381.88816406 -156.49726563 382.77632813 -156.23828125 383.69140625 C-154.95983541 387.10731674 -153.53192327 389.17170811 -151.1875 391.9375 C-148.76070972 394.85579211 -146.40643908 397.75118638 -144.25 400.875 C-142.30093061 403.58204082 -140.38043261 405.69170171 -138 408 C-137.0123558 409.13853429 -136.03396237 410.28512755 -135.0625 411.4375 C-130.24104677 417.10060342 -124.91516917 422.4689543 -119 427 C-118.34 427 -117.68 427 -117 427 C-116.814375 427.556875 -116.62875 428.11375 -116.4375 428.6875 C-114.35889174 432.03134807 -111.39186398 434.04807828 -108 436 C-107.34 436 -106.68 436 -106 436 C-105.773125 436.598125 -105.54625 437.19625 -105.3125 437.8125 C-103.60045075 440.66591541 -101.92508703 441.38186675 -99 443 C-97.5152354 443.99166935 -96.03655528 444.99248074 -94.5625 446 C-88.73636607 450.25874368 -88.73636607 450.25874368 -82 452 C-82 452.66 -82 453.32 -82 454 C-73.90775763 458.18319179 -65.94707135 462.27369728 -57.30078125 465.20703125 C-55 466 -55 466 -51.625 467.5 C-34.99365222 474.38193701 -17.86819226 478.00537792 -0.125 474.3125 C1.17655029 474.048927 1.17655029 474.048927 2.50439453 473.7800293 C8.48791434 472.49848355 13.96242154 470.71662364 19.4921875 468.05078125 C22 467 22 467 24.77734375 466.58203125 C29.06649121 465.80738522 32.73089853 464.16401759 36.6875 462.375 C37.48043457 462.01962158 38.27336914 461.66424316 39.09033203 461.2980957 C46.21874068 458.03145273 52.90222814 454.28920768 59.0390625 449.36328125 C61 448 61 448 62.90234375 447.53125 C76.64376065 444.05111462 89.80950144 428.61522848 100 419 C100.8559375 418.19820313 101.711875 417.39640625 102.59375 416.5703125 C109.47397868 409.92958545 115.29226947 402.64377988 121 395 C121.47598633 394.36352539 121.95197266 393.72705078 122.44238281 393.07128906 C123.84754588 391.18027301 125.23943093 389.28040885 126.625 387.375 C127.05103516 386.79524414 127.47707031 386.21548828 127.91601562 385.61816406 C129.96264218 382.7572701 131.28087051 380.42857697 132 377 C133.12890625 375.1328125 133.12890625 375.1328125 134.5625 373.125 C143.16815103 360.504751 149.3859574 347.15341007 155 333 C155.37656738 332.07054565 155.37656738 332.07054565 155.76074219 331.12231445 C159.09013658 322.89425095 162.31449181 314.81840551 164.25 306.1328125 C165.02403435 302.89960653 165.96067231 299.74988665 166.93334961 296.57226562 C168.68628983 290.84504548 170.31150696 285.44554509 170.6875 279.44140625 C171.23566265 275.15888553 172.46945195 270.99908809 173.62915039 266.84545898 C174.81088923 262.44287055 175.08870439 258.54055572 175 254 C175.49100165 252.39606128 175.98395054 250.7926263 176.49609375 249.1953125 C177.44236125 245.07281377 177.46995778 240.82922617 177.71484375 236.6171875 C177.97487047 233.31876631 178.44661572 230.18488986 179.0625 226.9375 C180.04590334 221.54324346 180.12862119 216.38249126 179.97265625 210.91015625 C180 208 180 208 180.49362183 205.73381042 C181.08240228 202.55513046 181.12718971 199.58227322 181.12939453 196.34887695 C181.13114685 195.70096695 181.13289917 195.05305695 181.13470459 194.38551331 C181.13908895 192.25307499 181.13619544 190.12072036 181.1328125 187.98828125 C181.13348693 186.49480677 181.13445812 185.00133239 181.13571167 183.50785828 C181.13718437 180.37835647 181.13504935 177.24888324 181.13037109 174.11938477 C181.12469881 170.13308314 181.1279396 166.14684922 181.13394356 162.16055012 C181.13758191 159.07451379 181.13639522 155.98849312 181.13381577 152.90245628 C181.13315423 151.43423644 181.13394749 149.96601512 181.13629532 148.49779701 C181.14613849 140.60679443 180.96208151 132.83965763 180 125 C179.82419886 122.87573619 179.65622626 120.75079306 179.5 118.625 C179.03469858 112.41359534 178.52560113 106.20656658 178 100 C172.72955956 98.0260898 167.48017472 96.09530553 162.0625 94.5625 C158.18233499 93.44595013 154.57311463 91.99437516 150.875 90.375 C146.13030139 88.33367618 142.14351972 87.29674152 137 87 C137 86.34 137 85.68 137 85 C136.24976563 84.75765625 135.49953125 84.5153125 134.7265625 84.265625 C128.77615771 82.31712973 122.93318182 80.24871439 117.15625 77.83203125 C115.05628584 76.96942513 115.05628584 76.96942513 113.015625 76.51171875 C110.63327105 75.90689633 108.50475129 74.97658017 106.25 74 C101.75419269 72.15898692 97.83149218 71.35788831 93 71 C93 70.34 93 69.68 93 69 C92.24976563 68.75765625 91.49953125 68.5153125 90.7265625 68.265625 C84.77615771 66.31712973 78.93318182 64.24871439 73.15625 61.83203125 C71.05628584 60.96942513 71.05628584 60.96942513 69.015625 60.51171875 C66.63327105 59.90689633 64.50475129 58.97658017 62.25 58 C57.75419269 56.15898692 53.83149218 55.35788831 49 55 C49 54.34 49 53.68 49 53 C47.87464844 52.63648438 47.87464844 52.63648438 46.7265625 52.265625 C40.77615771 50.31712973 34.93318182 48.24871439 29.15625 45.83203125 C27.05628584 44.96942513 27.05628584 44.96942513 25.015625 44.51171875 C22.63327105 43.90689633 20.50475129 42.97658017 18.25 42 C13.75419269 40.15898692 9.83149218 39.35788831 5 39 C5 38.34 5 37.68 5 37 C4.10796875 36.73445313 3.2159375 36.46890625 2.296875 36.1953125 C1.12640625 35.84210937 -0.0440625 35.48890625 -1.25 35.125 C-2.41015625 34.77695312 -3.5703125 34.42890625 -4.765625 34.0703125 C-8 33 -8 33 -10.171875 31.8671875 C-14.83721609 29.65414109 -18.97316279 32.02572844 -23.3125 33.875 Z " fill="#2991D6" transform="translate(270,3)"/>
<path d="M0 0 C2.18684482 0.01005893 4.37369416 0.01917959 6.56054688 0.02734375 C11.8529654 0.04910544 17.14521069 0.08234794 22.4375 0.125 C22.4375 0.785 22.4375 1.445 22.4375 2.125 C23.448125 2.228125 24.45875 2.33125 25.5 2.4375 C33.98071045 3.91825897 42.79734496 8.47767441 48.4375 15.125 C49.77083333 17.125 51.10416667 19.125 52.4375 21.125 C53.0975 21.455 53.7575 21.785 54.4375 22.125 C55.5078125 24.5234375 55.5078125 24.5234375 56.5625 27.5 C56.91570312 28.47710937 57.26890625 29.45421875 57.6328125 30.4609375 C58.4375 33.125 58.4375 33.125 58.4375 36.125 C59.0975 36.125 59.7575 36.125 60.4375 36.125 C61.16194694 40.02476407 61.56051012 43.70676917 61.55102539 47.67138672 C61.55094986 48.73203339 61.55087433 49.79268005 61.55079651 50.88546753 C61.54563522 52.01381012 61.54047394 53.14215271 61.53515625 54.3046875 C61.53303383 56.05653854 61.53303383 56.05653854 61.53086853 57.84378052 C61.52528498 61.56254674 61.51273544 65.28125207 61.5 69 C61.49498288 71.5260408 61.49042034 74.05208254 61.48632812 76.578125 C61.47532093 82.76043733 61.45859913 88.94271431 61.4375 95.125 C62.61828125 95.30675781 63.7990625 95.48851562 65.015625 95.67578125 C66.57301373 95.92909146 68.13030023 96.18303077 69.6875 96.4375 C70.46480469 96.55544922 71.24210938 96.67339844 72.04296875 96.79492188 C78.16856985 97.81585539 81.45048734 99.7549725 85.5625 104.4375 C86.06007813 104.99050781 86.55765625 105.54351562 87.0703125 106.11328125 C90.42738363 111.05297163 90.81467858 116.5199316 91.05419922 122.33154297 C91.11059728 123.51014295 91.11059728 123.51014295 91.16813469 124.71255302 C91.55108161 133.4136043 91.58261323 142.11243566 91.5703125 150.8203125 C91.57098925 152.54987603 91.57196234 154.27943947 91.57321167 156.00900269 C91.57467043 159.60057498 91.57259313 163.19212209 91.56787109 166.78369141 C91.56216626 171.33961549 91.56546934 175.89548072 91.57144356 180.45140266 C91.57509153 184.01203845 91.57389148 187.57266073 91.57131577 191.13329697 C91.57065861 192.81147138 91.57143141 194.4896471 91.57379532 196.16781998 C91.57965101 201.48824854 91.53822696 206.80551109 91.4375 212.125 C91.42595634 212.8692498 91.41441269 213.6134996 91.40251923 214.38030243 C91.35887896 216.55960982 91.28406732 218.73554184 91.19873047 220.91357422 C91.15714813 222.164841 91.1155658 223.41610779 91.07272339 224.70529175 C89.95481812 230.7235051 86.02175186 234.34202914 81.4375 238.125 C80.92971512 238.64564026 80.42193024 239.16628052 79.89875793 239.70269775 C76.02311861 241.94233727 72.14010139 241.69788637 67.7331543 241.79980469 C66.2244994 241.84922274 66.2244994 241.84922274 64.68536663 241.89963913 C51.11726346 242.29641163 37.54001779 242.30839881 23.96709275 242.32518864 C21.67992504 242.32816022 19.39276188 242.3322707 17.10559654 242.33669281 C9.92209271 242.3502552 2.73859976 242.35998763 -4.44491595 242.3638947 C-12.69396026 242.36841008 -20.94284176 242.3861638 -29.19183654 242.4148953 C-35.61354443 242.43648012 -42.03520621 242.44659653 -48.45695001 242.44793582 C-52.27641525 242.44898204 -56.09572497 242.45485636 -59.9151516 242.47275543 C-63.48838921 242.48919042 -67.06135308 242.4914143 -70.63461494 242.48261642 C-72.56834018 242.48147683 -74.50205623 242.49521146 -76.43572998 242.5093689 C-77.58597153 242.50379974 -78.73621307 242.49823059 -79.92131042 242.49249268 C-80.92015857 242.49395924 -81.91900671 242.4954258 -82.94812298 242.4969368 C-85.98573996 242.06478737 -87.25565207 241.08477532 -89.5625 239.125 C-90.408125 238.815625 -91.25375 238.50625 -92.125 238.1875 C-97.39248494 235.89141682 -99.2046808 230.05607365 -101.5625 225.125 C-101.8925 225.125 -102.2225 225.125 -102.5625 225.125 C-102.65537571 211.36396869 -102.72635434 197.60301254 -102.76974869 183.84173107 C-102.79058082 177.45109637 -102.81881891 171.06067688 -102.86425781 164.67016602 C-102.90787097 158.4974641 -102.93166998 152.32496857 -102.94200897 146.1521244 C-102.94937256 143.8027147 -102.96375168 141.45331569 -102.98542023 139.10399437 C-103.01465918 135.80110049 -103.01844737 132.49904837 -103.01660156 129.19604492 C-103.03098267 128.23506393 -103.04536377 127.27408295 -103.06018066 126.28398132 C-103.00937327 117.82538833 -101.12341649 109.72298499 -95.5 103.1875 C-90.35343297 98.58325939 -83.40805072 95.95671818 -76.5 95.8125 C-73.5625 96.125 -73.5625 96.125 -71.5625 97.125 C-71.72331055 96.49698486 -71.88412109 95.86896973 -72.04980469 95.22192383 C-72.74927712 90.99677726 -72.74512366 86.85042365 -72.765625 82.57421875 C-72.77132507 81.64261429 -72.77702515 80.71100983 -72.78289795 79.75117493 C-72.79233266 77.77675504 -72.79887585 75.80231952 -72.80273438 73.82788086 C-72.81234335 70.86086948 -72.84334045 67.8945805 -72.875 64.92773438 C-72.97459957 47.08087646 -72.1315564 28.49584688 -59.296875 14.6875 C-56.80322683 12.36636837 -54.24606955 10.2229176 -51.5625 8.125 C-50.81355469 7.52300781 -50.06460938 6.92101562 -49.29296875 6.30078125 C-36.14820141 -2.94758146 -15.29938488 -0.12374932 0 0 Z M-35.5625 39.125 C-38.09630145 42.92570217 -38.68775785 45.47183245 -38.69189453 49.93188477 C-38.69504669 50.90621964 -38.69819885 51.8805545 -38.70144653 52.88441467 C-38.6994223 53.93447189 -38.69739807 54.98452911 -38.6953125 56.06640625 C-38.69626923 57.14502426 -38.69722595 58.22364227 -38.69821167 59.33494568 C-38.69889236 61.61546894 -38.69704581 63.89599413 -38.69287109 66.17651367 C-38.68751612 69.67696457 -38.69282254 73.17728745 -38.69921875 76.67773438 C-38.69855805 78.89062528 -38.69727706 81.10351611 -38.6953125 83.31640625 C-38.69733673 84.3684877 -38.69936096 85.42056915 -38.70144653 86.50453186 C-38.69829437 87.47571457 -38.69514221 88.44689728 -38.69189453 89.44750977 C-38.69109894 90.30449966 -38.69030334 91.16148956 -38.68948364 92.04444885 C-38.69516004 94.18625841 -38.69516004 94.18625841 -37.5625 96.125 C-34.50051208 97.21250535 -31.58079868 97.2515784 -28.35424805 97.25439453 C-26.79694221 97.25912277 -26.79694221 97.25912277 -25.20817566 97.26394653 C-24.09146988 97.2619223 -22.9747641 97.25989807 -21.82421875 97.2578125 C-20.67008987 97.25876923 -19.515961 97.25972595 -18.32685852 97.26071167 C-15.88497869 97.26139213 -13.44309705 97.25954716 -11.0012207 97.25537109 C-7.27486062 97.2500356 -3.54862188 97.25531311 0.17773438 97.26171875 C2.5520836 97.26105766 4.92643275 97.25977586 7.30078125 97.2578125 C8.96673088 97.26084885 8.96673088 97.26084885 10.66633606 97.26394653 C16.03115736 97.24780506 21.15321429 97.07277375 26.4375 96.125 C27.41020002 90.39844791 27.61345037 84.83006014 27.640625 79.02734375 C27.64632507 78.07485245 27.65202515 77.12236115 27.65789795 76.14100647 C27.66730277 74.13657732 27.67386385 72.13213302 27.67773438 70.12768555 C27.68748064 67.06857526 27.71856314 64.01012603 27.75 60.95117188 C27.75652729 58.99739979 27.76177884 57.04362295 27.765625 55.08984375 C27.7841452 53.72556496 27.7841452 53.72556496 27.80303955 52.33372498 C27.78507206 47.1977063 27.38578204 43.53300497 24.4375 39.125 C21.88028263 37.69942644 21.88028263 37.69942644 19.4375 37.125 C19.4375 36.465 19.4375 35.805 19.4375 35.125 C11.35967325 32.97869379 3.37477735 32.78434535 -4.92163086 32.80932617 C-7.12468409 32.81249954 -9.32640734 32.78890235 -11.52929688 32.76367188 C-24.76824707 32.46784505 -24.76824707 32.46784505 -35.5625 39.125 Z M-23.5625 142.125 C-25.04106168 146.56068503 -25.37943009 150.50221307 -24.5625 155.125 C-22.64865568 158.81741692 -20.41452795 162.0923006 -17.5625 165.125 C-16.9025 165.125 -16.2425 165.125 -15.5625 165.125 C-15.57821045 166.86571777 -15.57821045 166.86571777 -15.59423828 168.64160156 C-15.63045983 172.95032665 -15.65340836 177.25903829 -15.67236328 181.56787109 C-15.68241593 183.43215194 -15.69606005 185.29641703 -15.71337891 187.16064453 C-15.73765953 189.84151091 -15.74899047 192.52216866 -15.7578125 195.203125 C-15.76813507 196.03555725 -15.77845764 196.8679895 -15.78909302 197.72564697 C-15.91354759 203.26379529 -15.91354759 203.26379529 -13.5625 208.125 C-10.59444546 208.90935264 -10.59444546 208.90935264 -7.1875 209 C-6.04539062 209.07992187 -4.90328125 209.15984375 -3.7265625 209.2421875 C-0.58220888 209.12572996 0.75841107 208.60064015 3.4375 207.125 C3.42964478 205.90151855 3.42964478 205.90151855 3.42163086 204.65332031 C3.40437729 201.56689729 3.39194854 198.48049921 3.38256836 195.39404297 C3.37518907 193.4254389 3.36246942 191.45685714 3.34960938 189.48828125 C3.29399791 167.57736286 3.29399791 167.57736286 5.72192383 164.49365234 C7.24370871 163.30378708 8.84009532 162.21123518 10.4375 161.125 C14.41623369 155.42214838 14.10905701 149.57806256 13.109375 142.94921875 C11.58777187 137.35189296 7.9800194 134.46595259 3.1953125 131.41796875 C-8.14966499 126.09900621 -17.01984459 133.1242283 -23.5625 142.125 Z " fill="#2991D6" transform="translate(261.5625,118.875)"/>
<path d="" fill="#2991D6" transform="translate(0,0)"/>
<path d="" fill="#2991D6" transform="translate(0,0)"/>
<path d="" fill="#2991D6" transform="translate(0,0)"/>
<path d="" fill="#2991D6" transform="translate(0,0)"/>
<path d="" fill="#2991D6" transform="translate(0,0)"/>
<path d="" fill="#2991D6" transform="translate(0,0)"/>
<path d="" fill="#2991D6" transform="translate(0,0)"/>
<path d="" fill="#2991D6" transform="translate(0,0)"/>
<path d="" fill="#2991D6" transform="translate(0,0)"/>
<path d="" fill="#2991D6" transform="translate(0,0)"/>
<path d="" fill="#2991D6" transform="translate(0,0)"/>
<path d="" fill="#2991D6" transform="translate(0,0)"/>
<path d="" fill="#2991D6" transform="translate(0,0)"/>
<path d="" fill="#2991D6" transform="translate(0,0)"/>
<path d="" fill="#2991D6" transform="translate(0,0)"/>
<path d="" fill="#2991D6" transform="translate(0,0)"/>
<path d="" fill="#2991D6" transform="translate(0,0)"/>
<path d="" fill="#2991D6" transform="translate(0,0)"/>
<path d="" fill="#2991D6" transform="translate(0,0)"/>
<path d="" fill="#2991D6" transform="translate(0,0)"/>
<path d="" fill="#2991D6" transform="translate(0,0)"/>
<path d="" fill="#2991D6" transform="translate(0,0)"/>
<path d="" fill="#2991D6" transform="translate(0,0)"/>
<path d="" fill="#2991D6" transform="translate(0,0)"/>
<path d="" fill="#2991D6" transform="translate(0,0)"/>
<path d="" fill="#2991D6" transform="translate(0,0)"/>
<path d="" fill="#2991D6" transform="translate(0,0)"/>
<path d="" fill="#2991D6" transform="translate(0,0)"/>
</svg>
