<svg xmlns="http://www.w3.org/2000/svg" xmlns:xlink="http://www.w3.org/1999/xlink" width="485" zoomAndPan="magnify" viewBox="0 0 363.75 97.5" height="130" preserveAspectRatio="xMidYMid meet" version="1.0"><defs><g/><clipPath id="52b0a44831"><path d="M 0.804688 0 L 362.699219 0 L 362.699219 97.003906 L 0.804688 97.003906 Z M 0.804688 0 " clip-rule="nonzero"/></clipPath><clipPath id="40cf950dd5"><path d="M 69.980469 0 L 134.898438 0 L 134.898438 20 L 69.980469 20 Z M 69.980469 0 " clip-rule="nonzero"/></clipPath><clipPath id="cf88e5e28f"><path d="M 81 63.382812 L 124 63.382812 L 124 79 L 81 79 Z M 81 63.382812 " clip-rule="nonzero"/></clipPath><clipPath id="8af6301eb8"><path d="M 68.523438 76 L 136.121094 76 L 136.121094 96.820312 L 68.523438 96.820312 Z M 68.523438 76 " clip-rule="nonzero"/></clipPath></defs><g clip-path="url(#52b0a44831)"><path fill="#ffffff" d="M 0.804688 0 L 362.699219 0 L 362.699219 97.003906 L 0.804688 97.003906 Z M 0.804688 0 " fill-opacity="1" fill-rule="nonzero"/><path fill="#ffffff" d="M 0.804688 0 L 362.699219 0 L 362.699219 97.003906 L 0.804688 97.003906 Z M 0.804688 0 " fill-opacity="1" fill-rule="nonzero"/></g><path fill="#00bfd8" d="M 83.066406 25.6875 C 82.402344 26.328125 82.03125 27.203125 82.03125 28.136719 C 82.03125 29.996094 83.558594 31.539062 85.433594 31.539062 C 86.351562 31.539062 87.242188 31.152344 87.882812 30.503906 C 95.808594 22.589844 108.839844 22.589844 116.765625 30.503906 C 117.40625 31.152344 118.296875 31.539062 119.214844 31.539062 C 121.089844 31.539062 122.617188 29.996094 122.617188 28.136719 C 122.617188 27.203125 122.246094 26.328125 121.582031 25.6875 C 111.007812 15.144531 93.640625 15.144531 83.066406 25.6875 " fill-opacity="1" fill-rule="nonzero"/><g clip-path="url(#40cf950dd5)"><path fill="#00bfd8" d="M 133.617188 13.652344 C 125.316406 5.355469 114.054688 0.6875 102.324219 0.6875 C 90.59375 0.6875 79.332031 5.355469 71.03125 13.652344 C 70.355469 14.292969 69.980469 15.183594 69.980469 16.113281 C 69.980469 17.976562 71.511719 19.519531 73.386719 19.519531 C 74.316406 19.519531 75.207031 19.132812 75.847656 18.46875 C 82.867188 11.445312 92.402344 7.496094 102.324219 7.496094 C 112.246094 7.496094 121.78125 11.445312 128.800781 18.46875 C 129.441406 19.132812 130.332031 19.519531 131.261719 19.519531 C 133.125 19.519531 134.667969 17.976562 134.667969 16.113281 C 134.667969 15.183594 134.292969 14.292969 133.617188 13.652344 " fill-opacity="1" fill-rule="nonzero"/></g><g fill="#00bfd8" fill-opacity="1"><g transform="translate(59.196066, 66.25682)"><g><path d="M 10.65625 -35.453125 L 10.65625 0 L 2.578125 0 L 2.578125 -35.453125 Z M 10.65625 -35.453125 "/></g></g></g><g fill="#00bfd8" fill-opacity="1"><g transform="translate(72.432254, 66.25682)"><g/></g></g><g fill="#00bfd8" fill-opacity="1"><g transform="translate(84.164328, 66.25682)"><g><path d="M 0.984375 -17.75 C 0.984375 -22.875 2.726562 -27.210938 6.21875 -30.765625 C 9.71875 -34.316406 13.929688 -36.09375 18.859375 -36.09375 C 23.816406 -36.09375 28.03125 -34.320312 31.5 -30.78125 C 34.96875 -27.25 36.703125 -22.90625 36.703125 -17.75 C 36.703125 -12.5625 34.992188 -8.195312 31.578125 -4.65625 C 28.171875 -1.125 23.929688 0.640625 18.859375 0.640625 C 13.679688 0.640625 9.40625 -1.113281 6.03125 -4.625 C 2.664062 -8.132812 0.984375 -12.507812 0.984375 -17.75 Z M 9.71875 -17.75 C 9.71875 -15.882812 10.003906 -14.1875 10.578125 -12.65625 C 11.148438 -11.125 12.148438 -9.828125 13.578125 -8.765625 C 15.015625 -7.703125 16.773438 -7.171875 18.859375 -7.171875 C 21.867188 -7.171875 24.140625 -8.203125 25.671875 -10.265625 C 27.203125 -12.328125 27.96875 -14.820312 27.96875 -17.75 C 27.96875 -20.644531 27.1875 -23.128906 25.625 -25.203125 C 24.070312 -27.273438 21.816406 -28.3125 18.859375 -28.3125 C 15.941406 -28.3125 13.6875 -27.273438 12.09375 -25.203125 C 10.507812 -23.128906 9.71875 -20.644531 9.71875 -17.75 Z M 9.71875 -17.75 "/></g></g></g><g fill="#00bfd8" fill-opacity="1"><g transform="translate(121.853082, 66.25682)"><g/></g></g><g fill="#00bfd8" fill-opacity="1"><g transform="translate(133.585159, 66.25682)"><g><path d="M 0.34375 -28.359375 L 0.34375 -35.453125 L 25.265625 -35.453125 L 25.265625 -28.359375 L 16.84375 -28.359375 L 16.84375 0 L 8.765625 0 L 8.765625 -28.359375 Z M 0.34375 -28.359375 "/></g></g></g><g clip-path="url(#cf88e5e28f)"><path fill="#00bfd8" d="M 122.445312 69.976562 C 123.140625 69.308594 123.53125 68.390625 123.53125 67.417969 C 123.53125 65.472656 121.929688 63.859375 119.972656 63.859375 C 119.011719 63.859375 118.082031 64.261719 117.414062 64.945312 C 109.132812 73.210938 95.511719 73.210938 87.226562 64.945312 C 86.5625 64.261719 85.628906 63.859375 84.671875 63.859375 C 82.710938 63.859375 81.113281 65.472656 81.113281 67.417969 C 81.113281 68.390625 81.503906 69.308594 82.199219 69.976562 C 93.246094 80.996094 111.398438 80.996094 122.445312 69.976562 " fill-opacity="1" fill-rule="nonzero"/></g><g clip-path="url(#8af6301eb8)"><path fill="#00bfd8" d="M 69.621094 82.550781 C 78.292969 91.222656 90.0625 96.101562 102.320312 96.101562 C 114.578125 96.101562 126.351562 91.222656 135.023438 82.550781 C 135.730469 81.886719 136.121094 80.953125 136.121094 79.980469 C 136.121094 78.035156 134.523438 76.421875 132.5625 76.421875 C 131.589844 76.421875 130.660156 76.828125 129.992188 77.519531 C 122.652344 84.859375 112.6875 88.988281 102.320312 88.988281 C 91.953125 88.988281 81.988281 84.859375 74.652344 77.519531 C 73.984375 76.828125 73.050781 76.421875 72.078125 76.421875 C 70.132812 76.421875 68.523438 78.035156 68.523438 79.980469 C 68.523438 80.953125 68.910156 81.886719 69.621094 82.550781 " fill-opacity="1" fill-rule="nonzero"/></g><g fill="#000000" fill-opacity="1"><g transform="translate(177.122199, 65.290184)"><g><path d="M 4.203125 0 L 12.53125 0 L 12.53125 -13.265625 L 20.84375 -13.21875 C 23.789062 -13.21875 26.289062 -13.757812 28.34375 -14.84375 C 30.40625 -15.925781 31.988281 -17.4375 33.09375 -19.375 C 34.195312 -21.3125 34.75 -23.554688 34.75 -26.109375 C 34.75 -30.160156 33.488281 -33.296875 30.96875 -35.515625 C 28.445312 -37.742188 25.070312 -38.859375 20.84375 -38.859375 L 4.203125 -38.859375 Z M 19.453125 -31.8125 C 20.691406 -31.8125 21.828125 -31.625 22.859375 -31.25 C 23.890625 -30.882812 24.722656 -30.265625 25.359375 -29.390625 C 26.003906 -28.523438 26.328125 -27.328125 26.328125 -25.796875 C 26.328125 -24.265625 26.003906 -23.046875 25.359375 -22.140625 C 24.722656 -21.234375 23.890625 -20.59375 22.859375 -20.21875 C 21.828125 -19.851562 20.691406 -19.671875 19.453125 -19.671875 L 12.53125 -19.71875 L 12.53125 -31.8125 Z M 19.453125 -31.8125 "/></g></g></g><g fill="#000000" fill-opacity="1"><g transform="translate(213.087235, 65.290184)"><g><path d="M 13.0625 0.484375 C 15.257812 0.484375 17.148438 -0.0195312 18.734375 -1.03125 C 20.316406 -2.050781 21.445312 -3.378906 22.125 -5.015625 L 22.546875 -5.015625 L 22.546875 0 L 30.375 0 L 30.375 -28.5625 L 22.859375 -28.5625 L 22.546875 -23.609375 L 22.125 -23.609375 C 21.445312 -25.273438 20.316406 -26.601562 18.734375 -27.59375 C 17.148438 -28.59375 15.257812 -29.09375 13.0625 -29.09375 C 9.644531 -29.09375 6.890625 -27.859375 4.796875 -25.390625 C 2.703125 -22.921875 1.65625 -19.21875 1.65625 -14.28125 C 1.65625 -9.375 2.703125 -5.6875 4.796875 -3.21875 C 6.890625 -0.75 9.644531 0.484375 13.0625 0.484375 Z M 16.046875 -5.859375 C 14.128906 -5.859375 12.582031 -6.539062 11.40625 -7.90625 C 10.226562 -9.28125 9.640625 -11.40625 9.640625 -14.28125 C 9.640625 -17.195312 10.226562 -19.335938 11.40625 -20.703125 C 12.582031 -22.066406 14.128906 -22.75 16.046875 -22.75 C 17.503906 -22.75 18.703125 -22.410156 19.640625 -21.734375 C 20.578125 -21.066406 21.273438 -20.195312 21.734375 -19.125 C 22.203125 -18.0625 22.4375 -16.910156 22.4375 -15.671875 L 22.4375 -12.953125 C 22.4375 -11.742188 22.203125 -10.597656 21.734375 -9.515625 C 21.273438 -8.429688 20.578125 -7.550781 19.640625 -6.875 C 18.703125 -6.195312 17.503906 -5.859375 16.046875 -5.859375 Z M 16.046875 -5.859375 "/></g></g></g><g fill="#000000" fill-opacity="1"><g transform="translate(246.814445, 65.290184)"><g><path d="M 3.359375 0 L 11.1875 0 L 11.1875 -15.875 C 11.1875 -17.6875 11.726562 -19.273438 12.8125 -20.640625 C 13.894531 -22.015625 15.453125 -22.703125 17.484375 -22.703125 C 19.367188 -22.703125 20.734375 -22.113281 21.578125 -20.9375 C 22.429688 -19.769531 22.859375 -17.976562 22.859375 -15.5625 L 22.859375 0 L 30.703125 0 L 30.703125 -17.265625 C 30.703125 -20.140625 30.253906 -22.4375 29.359375 -24.15625 C 28.472656 -25.882812 27.273438 -27.140625 25.765625 -27.921875 C 24.253906 -28.703125 22.539062 -29.09375 20.625 -29.09375 C 18.601562 -29.09375 16.773438 -28.613281 15.140625 -27.65625 C 13.503906 -26.695312 12.296875 -25.273438 11.515625 -23.390625 L 11.1875 -23.390625 L 10.875 -28.5625 L 3.359375 -28.5625 Z M 3.359375 0 "/></g></g></g><g fill="#000000" fill-opacity="1"><g transform="translate(280.59494, 65.290184)"><g><path d="M 15.875 0.484375 C 18.289062 0.484375 20.441406 0.0820312 22.328125 -0.71875 C 24.210938 -1.519531 25.75 -2.628906 26.9375 -4.046875 C 28.132812 -5.472656 28.851562 -7.144531 29.09375 -9.0625 L 21.6875 -9.0625 C 21.40625 -7.957031 20.738281 -7.078125 19.6875 -6.421875 C 18.644531 -5.765625 17.375 -5.4375 15.875 -5.4375 C 13.925781 -5.4375 12.347656 -6.046875 11.140625 -7.265625 C 9.929688 -8.492188 9.34375 -10.25 9.375 -12.53125 L 29.265625 -12.53125 C 29.578125 -15.6875 29.269531 -18.515625 28.34375 -21.015625 C 27.425781 -23.523438 25.898438 -25.5 23.765625 -26.9375 C 21.640625 -28.375 18.921875 -29.09375 15.609375 -29.09375 C 12.804688 -29.09375 10.351562 -28.476562 8.25 -27.25 C 6.15625 -26.03125 4.53125 -24.300781 3.375 -22.0625 C 2.226562 -19.820312 1.65625 -17.160156 1.65625 -14.078125 C 1.65625 -11.160156 2.222656 -8.609375 3.359375 -6.421875 C 4.492188 -4.234375 6.117188 -2.535156 8.234375 -1.328125 C 10.347656 -0.117188 12.894531 0.484375 15.875 0.484375 Z M 15.609375 -23.1875 C 17.242188 -23.1875 18.617188 -22.722656 19.734375 -21.796875 C 20.859375 -20.867188 21.472656 -19.445312 21.578125 -17.53125 L 9.4375 -17.53125 C 9.570312 -19.269531 10.191406 -20.644531 11.296875 -21.65625 C 12.398438 -22.675781 13.835938 -23.1875 15.609375 -23.1875 Z M 15.609375 -23.1875 "/></g></g></g><g fill="#000000" fill-opacity="1"><g transform="translate(311.604792, 65.290184)"><g><path d="M 3.359375 0 L 11.1875 0 L 11.1875 -38.859375 L 3.359375 -38.859375 Z M 3.359375 0 "/></g></g></g></svg>