<svg xmlns="http://www.w3.org/2000/svg" xmlns:xlink="http://www.w3.org/1999/xlink" width="800" zoomAndPan="magnify" viewBox="0 0 600 570" height="760" preserveAspectRatio="xMidYMid meet" version="1.0"><defs><g/><clipPath id="5bbe7786d1"><path d="M 212.882812 168 L 356.171875 168 L 356.171875 211 L 212.882812 211 Z M 212.882812 168 " clip-rule="nonzero"/></clipPath><clipPath id="eb0fcceff4"><path d="M 213.125 359 L 356.171875 359 L 356.171875 402 L 213.125 402 Z M 213.125 359 " clip-rule="nonzero"/></clipPath></defs><path fill="#ffffff" d="M 241.917969 223.699219 C 240.445312 225.113281 239.617188 227.0625 239.617188 229.128906 C 239.617188 233.257812 243.011719 236.683594 247.171875 236.683594 C 249.207031 236.683594 251.183594 235.828125 252.601562 234.378906 C 270.191406 216.820312 299.109375 216.820312 316.699219 234.378906 C 318.113281 235.828125 320.089844 236.683594 322.128906 236.683594 C 326.289062 236.683594 329.683594 233.257812 329.683594 229.128906 C 329.683594 227.0625 328.855469 225.113281 327.378906 223.699219 C 303.917969 200.296875 265.378906 200.296875 241.917969 223.699219 " fill-opacity="1" fill-rule="nonzero"/><g clip-path="url(#5bbe7786d1)"><path fill="#ffffff" d="M 354.085938 196.992188 C 335.671875 178.578125 310.675781 168.21875 284.648438 168.21875 C 258.621094 168.21875 233.625 178.578125 215.210938 196.992188 C 213.707031 198.40625 212.882812 200.382812 212.882812 202.449219 C 212.882812 206.582031 216.273438 210.003906 220.4375 210.003906 C 222.5 210.003906 224.480469 209.148438 225.894531 207.671875 C 241.476562 192.09375 262.636719 183.328125 284.648438 183.328125 C 306.664062 183.328125 327.824219 192.09375 343.402344 207.671875 C 344.820312 209.148438 346.796875 210.003906 348.863281 210.003906 C 352.996094 210.003906 356.417969 206.582031 356.417969 202.449219 C 356.417969 200.382812 355.59375 198.40625 354.085938 196.992188 " fill-opacity="1" fill-rule="nonzero"/></g><g fill="#ffffff" fill-opacity="1"><g transform="translate(178.027097, 329.157677)"><g><path d="M 26 -86.484375 L 26 0 L 6.296875 0 L 6.296875 -86.484375 Z M 26 -86.484375 "/></g></g></g><g fill="#ffffff" fill-opacity="1"><g transform="translate(210.314456, 329.157677)"><g/></g></g><g fill="#ffffff" fill-opacity="1"><g transform="translate(238.932791, 329.157677)"><g><path d="M 2.40625 -43.296875 C 2.40625 -55.804688 6.664062 -66.394531 15.1875 -75.0625 C 23.71875 -83.726562 33.992188 -88.0625 46.015625 -88.0625 C 58.109375 -88.0625 68.378906 -83.742188 76.828125 -75.109375 C 85.285156 -66.472656 89.515625 -55.867188 89.515625 -43.296875 C 89.515625 -30.640625 85.359375 -19.992188 77.046875 -11.359375 C 68.734375 -2.734375 58.390625 1.578125 46.015625 1.578125 C 33.367188 1.578125 22.9375 -2.703125 14.71875 -11.265625 C 6.507812 -19.828125 2.40625 -30.503906 2.40625 -43.296875 Z M 23.6875 -43.296875 C 23.6875 -38.753906 24.382812 -34.613281 25.78125 -30.875 C 27.1875 -27.132812 29.632812 -23.96875 33.125 -21.375 C 36.613281 -18.789062 40.910156 -17.5 46.015625 -17.5 C 53.359375 -17.5 58.898438 -20.015625 62.640625 -25.046875 C 66.378906 -30.078125 68.25 -36.160156 68.25 -43.296875 C 68.25 -50.347656 66.34375 -56.40625 62.53125 -61.46875 C 58.71875 -66.539062 53.210938 -69.078125 46.015625 -69.078125 C 38.890625 -69.078125 33.382812 -66.539062 29.5 -61.46875 C 25.625 -56.40625 23.6875 -50.347656 23.6875 -43.296875 Z M 23.6875 -43.296875 "/></g></g></g><g fill="#ffffff" fill-opacity="1"><g transform="translate(330.867896, 329.157677)"><g/></g></g><g fill="#ffffff" fill-opacity="1"><g transform="translate(359.48624, 329.157677)"><g><path d="M 0.84375 -69.1875 L 0.84375 -86.484375 L 61.640625 -86.484375 L 61.640625 -69.1875 L 41.09375 -69.1875 L 41.09375 0 L 21.390625 0 L 21.390625 -69.1875 Z M 0.84375 -69.1875 "/></g></g></g><path fill="#ffffff" d="M 327.378906 346.292969 C 328.855469 344.878906 329.683594 342.929688 329.683594 340.863281 C 329.683594 336.734375 326.289062 333.308594 322.128906 333.308594 C 320.089844 333.308594 318.113281 334.164062 316.699219 335.613281 C 299.109375 353.171875 270.191406 353.171875 252.601562 335.613281 C 251.183594 334.164062 249.207031 333.308594 247.171875 333.308594 C 243.011719 333.308594 239.617188 336.734375 239.617188 340.863281 C 239.617188 342.929688 240.445312 344.878906 241.917969 346.292969 C 265.378906 369.695312 303.917969 369.695312 327.378906 346.292969 " fill-opacity="1" fill-rule="nonzero"/><g clip-path="url(#eb0fcceff4)"><path fill="#ffffff" d="M 215.210938 373 C 233.625 391.414062 258.621094 401.773438 284.648438 401.773438 C 310.675781 401.773438 335.671875 391.414062 354.085938 373 C 355.589844 371.585938 356.417969 369.605469 356.417969 367.542969 C 356.417969 363.410156 353.023438 359.988281 348.863281 359.988281 C 346.796875 359.988281 344.820312 360.84375 343.402344 362.316406 C 327.824219 377.898438 306.664062 386.664062 284.648438 386.664062 C 262.636719 386.664062 241.476562 377.898438 225.894531 362.316406 C 224.480469 360.84375 222.5 359.988281 220.4375 359.988281 C 216.304688 359.988281 212.882812 363.410156 212.882812 367.542969 C 212.882812 369.605469 213.707031 371.585938 215.210938 373 " fill-opacity="1" fill-rule="nonzero"/></g></svg>