<svg xmlns="http://www.w3.org/2000/svg" xmlns:xlink="http://www.w3.org/1999/xlink" width="520" zoomAndPan="magnify" viewBox="0 0 390 119.999999" height="160" preserveAspectRatio="xMidYMid meet" version="1.0"><defs><g/><clipPath id="91734a2add"><path d="M 62 22 L 113 22 L 113 39.75 L 62 39.75 Z M 62 22 " clip-rule="nonzero"/></clipPath><clipPath id="7a288e041e"><path d="M 47.007812 0 L 128 0 L 128 25 L 47.007812 25 Z M 47.007812 0 " clip-rule="nonzero"/></clipPath><clipPath id="493b72a16c"><path d="M 60 79.144531 L 113 79.144531 L 113 98 L 60 98 Z M 60 79.144531 " clip-rule="nonzero"/></clipPath><clipPath id="f06c1153e9"><path d="M 45.464844 95 L 127.882812 95 L 127.882812 119.644531 L 45.464844 119.644531 Z M 45.464844 95 " clip-rule="nonzero"/></clipPath></defs><rect x="-39" width="468" fill="#ffffff" y="-12" height="143.999998" fill-opacity="1"/><rect x="-39" width="468" fill="#ffffff" y="-12" height="143.999998" fill-opacity="1"/><g clip-path="url(#91734a2add)"><path fill="#00bfd8" d="M 63.382812 32.152344 C 62.550781 32.949219 62.085938 34.046875 62.085938 35.214844 C 62.085938 37.542969 64 39.472656 66.34375 39.472656 C 67.492188 39.472656 68.609375 38.992188 69.40625 38.175781 C 79.328125 28.273438 95.636719 28.273438 105.558594 38.175781 C 106.355469 38.992188 107.472656 39.472656 108.621094 39.472656 C 110.964844 39.472656 112.878906 37.542969 112.878906 35.214844 C 112.878906 34.046875 112.414062 32.949219 111.582031 32.152344 C 98.351562 18.953125 76.613281 18.953125 63.382812 32.152344 " fill-opacity="1" fill-rule="nonzero"/></g><g clip-path="url(#7a288e041e)"><path fill="#00bfd8" d="M 126.644531 17.089844 C 116.257812 6.703125 102.160156 0.863281 87.484375 0.863281 C 72.804688 0.863281 58.707031 6.703125 48.320312 17.089844 C 47.472656 17.886719 47.007812 19.003906 47.007812 20.167969 C 47.007812 22.496094 48.921875 24.429688 51.265625 24.429688 C 52.433594 24.429688 53.546875 23.945312 54.34375 23.113281 C 63.132812 14.324219 75.066406 9.382812 87.484375 9.382812 C 99.898438 9.382812 111.832031 14.324219 120.621094 23.113281 C 121.417969 23.945312 122.535156 24.429688 123.699219 24.429688 C 126.027344 24.429688 127.960938 22.496094 127.960938 20.167969 C 127.960938 19.003906 127.492188 17.886719 126.644531 17.089844 " fill-opacity="1" fill-rule="nonzero"/></g><g fill="#00bfd8" fill-opacity="1"><g transform="translate(38.022683, 77.763175)"><g><path d="M 11.625 -38.6875 L 11.625 0 L 2.8125 0 L 2.8125 -38.6875 Z M 11.625 -38.6875 "/></g></g></g><g fill="#00bfd8" fill-opacity="1"><g transform="translate(52.462955, 77.763175)"><g/></g></g><g fill="#00bfd8" fill-opacity="1"><g transform="translate(65.262284, 77.763175)"><g><path d="M 1.078125 -19.359375 C 1.078125 -24.960938 2.984375 -29.703125 6.796875 -33.578125 C 10.609375 -37.453125 15.203125 -39.390625 20.578125 -39.390625 C 25.992188 -39.390625 30.59375 -37.457031 34.375 -33.59375 C 38.15625 -29.738281 40.046875 -24.992188 40.046875 -19.359375 C 40.046875 -13.703125 38.1875 -8.941406 34.46875 -5.078125 C 30.75 -1.222656 26.117188 0.703125 20.578125 0.703125 C 14.921875 0.703125 10.253906 -1.207031 6.578125 -5.03125 C 2.910156 -8.863281 1.078125 -13.640625 1.078125 -19.359375 Z M 10.59375 -19.359375 C 10.59375 -17.328125 10.90625 -15.472656 11.53125 -13.796875 C 12.15625 -12.128906 13.25 -10.71875 14.8125 -9.5625 C 16.375 -8.40625 18.296875 -7.828125 20.578125 -7.828125 C 23.867188 -7.828125 26.347656 -8.953125 28.015625 -11.203125 C 29.691406 -13.453125 30.53125 -16.171875 30.53125 -19.359375 C 30.53125 -22.523438 29.675781 -25.238281 27.96875 -27.5 C 26.269531 -29.769531 23.804688 -30.90625 20.578125 -30.90625 C 17.390625 -30.90625 14.925781 -29.769531 13.1875 -27.5 C 11.457031 -25.238281 10.59375 -22.523438 10.59375 -19.359375 Z M 10.59375 -19.359375 "/></g></g></g><g fill="#00bfd8" fill-opacity="1"><g transform="translate(106.379549, 77.763175)"><g/></g></g><g fill="#00bfd8" fill-opacity="1"><g transform="translate(119.178882, 77.763175)"><g><path d="M 0.375 -30.953125 L 0.375 -38.6875 L 27.578125 -38.6875 L 27.578125 -30.953125 L 18.375 -30.953125 L 18.375 0 L 9.5625 0 L 9.5625 -30.953125 Z M 0.375 -30.953125 "/></g></g></g><g clip-path="url(#493b72a16c)"><path fill="#00bfd8" d="M 111.257812 87.195312 C 112.109375 86.382812 112.582031 85.261719 112.582031 84.074219 C 112.582031 81.695312 110.632812 79.726562 108.238281 79.726562 C 107.066406 79.726562 105.929688 80.21875 105.113281 81.050781 C 94.992188 91.152344 78.355469 91.152344 68.238281 81.050781 C 67.421875 80.21875 66.285156 79.726562 65.113281 79.726562 C 62.71875 79.726562 60.765625 81.695312 60.765625 84.074219 C 60.765625 85.261719 61.242188 86.382812 62.089844 87.195312 C 75.589844 100.660156 97.761719 100.660156 111.257812 87.195312 " fill-opacity="1" fill-rule="nonzero"/></g><g clip-path="url(#f06c1153e9)"><path fill="#00bfd8" d="M 46.726562 102.5625 C 57.320312 113.15625 71.699219 119.117188 86.675781 119.117188 C 101.648438 119.117188 116.03125 113.15625 126.625 102.5625 C 127.492188 101.746094 127.964844 100.609375 127.964844 99.421875 C 127.964844 97.042969 126.011719 95.074219 123.621094 95.074219 C 122.429688 95.074219 121.292969 95.566406 120.476562 96.414062 C 111.515625 105.378906 99.339844 110.421875 86.675781 110.421875 C 74.007812 110.421875 61.835938 105.378906 52.871094 96.414062 C 52.054688 95.566406 50.917969 95.074219 49.730469 95.074219 C 47.351562 95.074219 45.382812 97.042969 45.382812 99.421875 C 45.382812 100.609375 45.859375 101.746094 46.726562 102.5625 " fill-opacity="1" fill-rule="nonzero"/></g><g fill="#000000" fill-opacity="1"><g transform="translate(170.044677, 82.182727)"><g><path d="M 5.671875 0 L 16.875 0 L 16.875 -17.875 L 28.078125 -17.8125 C 32.046875 -17.8125 35.414062 -18.539062 38.1875 -20 C 40.96875 -21.457031 43.097656 -23.488281 44.578125 -26.09375 C 46.066406 -28.707031 46.8125 -31.738281 46.8125 -35.1875 C 46.8125 -40.632812 45.109375 -44.851562 41.703125 -47.84375 C 38.304688 -50.84375 33.765625 -52.34375 28.078125 -52.34375 L 5.671875 -52.34375 Z M 26.203125 -42.859375 C 27.878906 -42.859375 29.410156 -42.609375 30.796875 -42.109375 C 32.191406 -41.609375 33.316406 -40.769531 34.171875 -39.59375 C 35.035156 -38.425781 35.46875 -36.8125 35.46875 -34.75 C 35.46875 -32.6875 35.035156 -31.046875 34.171875 -29.828125 C 33.316406 -28.609375 32.191406 -27.75 30.796875 -27.25 C 29.410156 -26.75 27.878906 -26.5 26.203125 -26.5 L 16.875 -26.5625 L 16.875 -42.859375 Z M 26.203125 -42.859375 "/></g></g></g><g fill="#000000" fill-opacity="1"><g transform="translate(218.499186, 82.182727)"><g><path d="M 17.59375 0.640625 C 20.5625 0.640625 23.109375 -0.0390625 25.234375 -1.40625 C 27.367188 -2.769531 28.890625 -4.550781 29.796875 -6.75 L 30.375 -6.75 L 30.375 0 L 40.921875 0 L 40.921875 -38.484375 L 30.796875 -38.484375 L 30.375 -31.8125 L 29.796875 -31.8125 C 28.890625 -34.0625 27.367188 -35.851562 25.234375 -37.1875 C 23.109375 -38.53125 20.5625 -39.203125 17.59375 -39.203125 C 13 -39.203125 9.285156 -37.535156 6.453125 -34.203125 C 3.628906 -30.878906 2.21875 -25.890625 2.21875 -19.234375 C 2.21875 -12.628906 3.628906 -7.664062 6.453125 -4.34375 C 9.285156 -1.019531 13 0.640625 17.59375 0.640625 Z M 21.609375 -7.890625 C 19.023438 -7.890625 16.941406 -8.8125 15.359375 -10.65625 C 13.785156 -12.5 13 -15.359375 13 -19.234375 C 13 -23.160156 13.785156 -26.046875 15.359375 -27.890625 C 16.941406 -29.734375 19.023438 -30.65625 21.609375 -30.65625 C 23.566406 -30.65625 25.179688 -30.195312 26.453125 -29.28125 C 27.722656 -28.375 28.664062 -27.203125 29.28125 -25.765625 C 29.90625 -24.335938 30.21875 -22.785156 30.21875 -21.109375 L 30.21875 -17.453125 C 30.21875 -15.816406 29.90625 -14.269531 29.28125 -12.8125 C 28.664062 -11.351562 27.722656 -10.164062 26.453125 -9.25 C 25.179688 -8.34375 23.566406 -7.890625 21.609375 -7.890625 Z M 21.609375 -7.890625 "/></g></g></g><g fill="#000000" fill-opacity="1"><g transform="translate(263.938747, 82.182727)"><g><path d="M 4.515625 0 L 15.078125 0 L 15.078125 -21.390625 C 15.078125 -23.835938 15.804688 -25.976562 17.265625 -27.8125 C 18.722656 -29.65625 20.816406 -30.578125 23.546875 -30.578125 C 26.085938 -30.578125 27.929688 -29.785156 29.078125 -28.203125 C 30.222656 -26.628906 30.796875 -24.21875 30.796875 -20.96875 L 30.796875 0 L 41.359375 0 L 41.359375 -23.265625 C 41.359375 -27.140625 40.757812 -30.238281 39.5625 -32.5625 C 38.363281 -34.882812 36.742188 -36.570312 34.703125 -37.625 C 32.671875 -38.675781 30.363281 -39.203125 27.78125 -39.203125 C 25.050781 -39.203125 22.585938 -38.554688 20.390625 -37.265625 C 18.191406 -35.972656 16.566406 -34.054688 15.515625 -31.515625 L 15.078125 -31.515625 L 14.640625 -38.484375 L 4.515625 -38.484375 Z M 4.515625 0 "/></g></g></g><g fill="#000000" fill-opacity="1"><g transform="translate(309.450096, 82.182727)"><g><path d="M 21.390625 0.640625 C 24.648438 0.640625 27.546875 0.101562 30.078125 -0.96875 C 32.617188 -2.039062 34.691406 -3.535156 36.296875 -5.453125 C 37.898438 -7.367188 38.867188 -9.617188 39.203125 -12.203125 L 29.21875 -12.203125 C 28.832031 -10.722656 27.929688 -9.539062 26.515625 -8.65625 C 25.109375 -7.769531 23.398438 -7.328125 21.390625 -7.328125 C 18.765625 -7.328125 16.632812 -8.148438 15 -9.796875 C 13.375 -11.453125 12.585938 -13.8125 12.640625 -16.875 L 39.421875 -16.875 C 39.847656 -21.132812 39.4375 -24.953125 38.1875 -28.328125 C 36.945312 -31.703125 34.890625 -34.359375 32.015625 -36.296875 C 29.148438 -38.234375 25.488281 -39.203125 21.03125 -39.203125 C 17.25 -39.203125 13.945312 -38.375 11.125 -36.71875 C 8.300781 -35.070312 6.109375 -32.738281 4.546875 -29.71875 C 2.992188 -26.707031 2.21875 -23.117188 2.21875 -18.953125 C 2.21875 -15.023438 2.984375 -11.585938 4.515625 -8.640625 C 6.054688 -5.703125 8.25 -3.421875 11.09375 -1.796875 C 13.9375 -0.171875 17.367188 0.640625 21.390625 0.640625 Z M 21.03125 -31.234375 C 23.238281 -31.234375 25.09375 -30.609375 26.59375 -29.359375 C 28.101562 -28.117188 28.929688 -26.207031 29.078125 -23.625 L 12.703125 -23.625 C 12.898438 -25.96875 13.738281 -27.820312 15.21875 -29.1875 C 16.707031 -30.550781 18.644531 -31.234375 21.03125 -31.234375 Z M 21.03125 -31.234375 "/></g></g></g><g fill="#000000" fill-opacity="1"><g transform="translate(351.228649, 82.182727)"><g><path d="M 4.515625 0 L 15.078125 0 L 15.078125 -52.34375 L 4.515625 -52.34375 Z M 4.515625 0 "/></g></g></g></svg>